<?xml version="1.0" encoding="utf-8"?>
<!-- Generator: Adobe Illustrator 18.0.0, SVG Export Plug-In . SVG Version: 6.00 Build 0)  -->
<!DOCTYPE svg PUBLIC "-//W3C//DTD SVG 1.1//EN" "http://www.w3.org/Graphics/SVG/1.1/DTD/svg11.dtd">
<svg version="1.1" id="Layer_1" xmlns="http://www.w3.org/2000/svg" xmlns:xlink="http://www.w3.org/1999/xlink" x="0px" y="0px"
	 viewBox="0 0 100 63" enable-background="new 0 0 100 63" xml:space="preserve">
<g>
	<path fill="#0078A9" d="M100,59.2c0,1.8-1.5,3.3-3.3,3.3H3.3C1.5,62.5,0,61,0,59.2V3.3C0,1.5,1.5,0,3.3,0h93.3
		c1.8,0,3.3,1.5,3.3,3.3V59.2z"/>
	<g>
		<path fill="#FFFFFF" d="M31,29.8v-1l-0.5,1h-4.1l-0.5-1.1v1.1h-7.7l-0.9-2.2h-1.6l-1,2.2h-4v-6.5l2.9-6.7h5.6l0.8,1.9v-1.9H27
			l1.5,3.2l1.5-3.2h21.7c0,0,1.1,0,1.9,0.5l0-0.5h5.5v0.7c0,0,1-0.7,2.4-0.7s9.7,0,9.7,0l0.8,1.9v-1.9h6.2l1.1,1.9v-1.9h5.9v13.2
			h-6.1l-1.4-2.3v2.3h-7.6l-1.1-2.4h-1.5l-1,2.4h-4.6c0,0-1.7,0-3-0.9c0,0.5,0,0.9,0,0.9H50c0,0,0-2.6,0-3.1c0-0.4-0.3-0.4-0.3-0.4
			h-0.3v3.5H31z"/>
		<path fill="#FFFFFF" d="M26.5,32.7h12l1.7,2l1.8-2h9.2c0,0,0.9,0,1.7,0.5v-0.5c0,0,7.2,0,8.2,0c1,0,1.9,0.5,1.9,0.5v-0.5h10.5v0.5
			c0,0,0.8-0.5,1.8-0.5c1,0,6.9,0,6.9,0v0.5c0,0,0.9-0.5,1.8-0.5c0.9,0,5.4,0,5.4,0v12.4c0,0-0.7,0.8-2.2,0.8H80v-0.4
			c0,0-0.7,0.4-1.7,0.4c-1,0-18.9,0-18.9,0s0-2.9,0-3.2c0-0.3-0.1-0.4-0.4-0.4h-0.3v3.6h-5.9v-3.6c0,0-0.7,0.4-1.7,0.4
			c-1.1,0-2.1,0-2.1,0v3.2h-7.3l-1.7-2l-1.8,2H26.5V32.7z"/>
		<polygon fill="#0078A9" points="64.2,34.6 71.7,34.6 71.7,36.7 66.5,36.7 66.5,38.4 71.6,38.4 71.6,40.2 66.5,40.2 66.5,42 
			71.7,42 71.7,44 64.2,44 		"/>
		<path fill="#0078A9" d="M86.2,38.3c2.8,0.1,3.1,1.6,3.1,3.1c0,1.8-1.4,2.7-2.9,2.7h-4.8v-2h3.8c0.6,0,1.6,0,1.6-0.9
			c0-0.4-0.2-0.7-0.8-0.8c-0.3,0-1.4-0.1-1.6-0.1c-2.6-0.1-3.1-1.3-3.1-2.9c0-1.8,1.2-2.7,2.7-2.7h4.8v2h-3.5
			c-0.8,0-1.7-0.1-1.7,0.8c0,0.6,0.4,0.7,1,0.7C84.8,38.2,86.1,38.3,86.2,38.3z"/>
		<path fill="#0078A9" d="M77.6,38.3c2.8,0.1,3.1,1.6,3.1,3.1c0,1.8-1.4,2.7-2.9,2.7h-4.8v-2h3.8c0.6,0,1.6,0,1.6-0.9
			c0-0.4-0.2-0.7-0.8-0.8c-0.3,0-1.4-0.1-1.6-0.1c-2.6-0.1-3.1-1.3-3.1-2.9c0-1.8,1.2-2.7,2.7-2.7h4.8v2h-3.5
			c-0.8,0-1.7-0.1-1.7,0.8c0,0.6,0.4,0.7,1,0.7C76.2,38.2,77.4,38.3,77.6,38.3z"/>
		<path fill="#0078A9" d="M50.3,34.7h-8.1l-2.6,2.9l-2.5-2.9H28V44h8.8l2.8-3.1l2.7,3.1h4.4v-3.2h3.1c1.2,0,3.4,0,3.4-3.3
			C53.1,35.2,51.5,34.7,50.3,34.7z M35.6,42h-5.3v-1.8h5.1v-1.8h-5.1v-1.8l5.6,0l2.2,2.5L35.6,42z M44.4,43.1l-3.3-3.9l3.3-3.7V43.1
			z M49.6,38.9h-2.9v-2.2h2.9c1,0,1.3,0.6,1.3,1.1C50.8,38.4,50.5,38.9,49.6,38.9z"/>
		<path fill="#0078A9" d="M61.4,39.8c1.3-0.6,1.6-1.5,1.6-2.6c0-2-1.6-2.5-2.8-2.5h-6V44h2.3v-3.3h3c0.8,0,1.1,0.8,1.1,1.6l0.1,1.7
			H63l-0.1-1.9C62.9,40.6,62.5,39.9,61.4,39.8z M59.5,38.8h-2.9v-2.1h2.9c1,0,1.3,0.6,1.3,1.1C60.7,38.4,60.4,38.8,59.5,38.8z"/>
		<rect x="55.2" y="18.5" fill="#0078A9" width="2.3" height="9.4"/>
		<polygon fill="#0078A9" points="36.4,18.5 43.9,18.5 43.9,20.5 38.7,20.5 38.7,22.3 43.8,22.3 43.8,24 38.7,24 38.7,25.9 
			43.9,25.9 43.9,27.9 36.4,27.9 		"/>
		<path fill="#0078A9" d="M52.4,23.6C53.7,23,54,22.1,54,21c0-2-1.6-2.5-2.8-2.5h-6v9.4h2.3v-3.3h3c0.8,0,1.1,0.8,1.1,1.6l0.1,1.7
			H54l-0.1-1.9C53.9,24.4,53.5,23.7,52.4,23.6z M50.4,22.6h-2.9v-2.1h2.9c1,0,1.3,0.6,1.3,1.1C51.7,22.2,51.4,22.6,50.4,22.6z"/>
		<path fill="#0078A9" d="M31.1,18.5l-2.8,6.3l-2.8-6.3h-3.6v9l-4-9h-3l-4.1,9.4h2.4l0.9-2.1h4.6l0.9,2.1h4.6v-6.9l3.1,6.9h2.1
			l3.1-6.8v6.8h2.3v-9.4H31.1z M14.9,23.7l1.4-3.3l1.4,3.3H14.9z"/>
		<path fill="#0078A9" d="M81.2,18.5V25l-3.9-6.5H74v8.8L70,18.5h-3l-3.2,7.3c0,0-1.3,0-1.5,0c-0.6-0.1-1.4-0.5-1.4-2.2v-0.7
			c0-2.2,1.2-2.4,2.7-2.4h1.4v-2h-3c-1,0-3.3,0.8-3.4,4.6c-0.1,2.6,1.1,4.7,3.6,4.7h3l0.9-2.1h4.6l0.9,2.1h4.5V21l4.1,6.9h3.1v-9.4
			H81.2z M67.1,23.7l1.4-3.3l1.4,3.3H67.1z"/>
	</g>
</g>
</svg>
