<?xml version="1.0" encoding="utf-8"?>
<!-- Generator: Adobe Illustrator 18.0.0, SVG Export Plug-In . SVG Version: 6.00 Build 0)  -->
<!DOCTYPE svg PUBLIC "-//W3C//DTD SVG 1.1//EN" "http://www.w3.org/Graphics/SVG/1.1/DTD/svg11.dtd">
<svg version="1.1" id="Layer_1" xmlns="http://www.w3.org/2000/svg" xmlns:xlink="http://www.w3.org/1999/xlink" x="0px" y="0px"
	 viewBox="0 0 100 63" enable-background="new 0 0 100 63" xml:space="preserve">
<g>
	<path fill="#13457C" d="M100,59.2c0,1.8-1.5,3.3-3.3,3.3H3.3C1.5,62.5,0,61,0,59.2V3.3C0,1.5,1.5,0,3.3,0h93.3
		c1.8,0,3.3,1.5,3.3,3.3V59.2z"/>
	<g>
		<polygon fill-rule="evenodd" clip-rule="evenodd" fill="#FBB231" points="62,49.2 62.9,49.2 63.8,49.1 64.7,49 65.6,48.8 
			66.5,48.6 67.3,48.4 68.2,48.1 69,47.8 69.8,47.4 70.6,47 71.3,46.6 72.1,46.1 72.8,45.6 73.4,45.1 74.1,44.5 74.7,43.9 
			75.3,43.3 75.9,42.6 76.4,42 76.9,41.3 77.4,40.5 77.8,39.8 78.2,39 78.6,38.2 78.9,37.4 79.2,36.6 79.4,35.7 79.6,34.8 79.8,34 
			79.9,33.1 80,32.1 80,31.2 80,30.3 79.9,29.4 79.8,28.5 79.6,27.6 79.4,26.8 79.2,25.9 78.9,25.1 78.6,24.3 78.2,23.5 77.8,22.7 
			77.4,21.9 76.9,21.2 76.4,20.5 75.9,19.8 75.3,19.2 74.7,18.6 74.1,18 73.4,17.4 72.8,16.9 72.1,16.4 71.3,15.9 70.6,15.5 
			69.8,15.1 69,14.7 68.2,14.4 67.3,14.1 66.5,13.9 65.6,13.7 64.7,13.5 63.8,13.4 62.9,13.3 62,13.3 61.1,13.3 60.2,13.4 
			59.3,13.5 58.4,13.7 57.5,13.9 56.7,14.1 55.8,14.4 55,14.7 54.2,15.1 53.5,15.5 52.7,15.9 52,16.4 51.3,16.9 50.6,17.4 50,18 
			49.3,18.6 48.7,19.2 48.2,19.8 47.6,20.5 47.1,21.2 46.7,21.9 46.3,22.7 45.9,23.5 45.5,24.3 45.2,25.1 44.9,25.9 44.7,26.8 
			44.5,27.6 44.3,28.5 44.2,29.4 44.1,30.3 44.1,31.2 44.1,32.1 44.2,33.1 44.3,34 44.5,34.8 44.7,35.7 44.9,36.6 45.2,37.4 
			45.5,38.2 45.9,39 46.3,39.8 46.7,40.5 47.1,41.3 47.6,42 48.2,42.6 48.7,43.3 49.3,43.9 50,44.5 50.6,45.1 51.3,45.6 52,46.1 
			52.7,46.6 53.5,47 54.2,47.4 55,47.8 55.8,48.1 56.7,48.4 57.5,48.6 58.4,48.8 59.3,49 60.2,49.1 61.1,49.2 62,49.2 62,49.2 		"/>
		<polygon fill-rule="evenodd" clip-rule="evenodd" fill="#EC1C2E" points="38,49.2 38.9,49.2 39.8,49.1 40.7,49 41.6,48.8 
			42.5,48.6 43.3,48.4 44.2,48.1 45,47.8 45.8,47.4 46.5,47 47.3,46.6 48,46.1 48.7,45.6 49.4,45.1 50,44.5 50.7,43.9 51.3,43.3 
			51.8,42.6 52.4,42 52.8,41.3 53.3,40.5 53.7,39.8 54.1,39 54.5,38.2 54.8,37.4 55.1,36.6 55.3,35.7 55.5,34.8 55.7,34 55.8,33.1 
			55.9,32.1 55.9,31.2 55.9,30.3 55.8,29.4 55.7,28.5 55.5,27.6 55.3,26.8 55.1,25.9 54.8,25.1 54.5,24.3 54.1,23.5 53.7,22.7 
			53.3,21.9 52.8,21.2 52.4,20.5 51.8,19.8 51.3,19.2 50.7,18.6 50,18 49.4,17.4 48.7,16.9 48,16.4 47.3,15.9 46.5,15.5 45.8,15.1 
			45,14.7 44.2,14.4 43.3,14.1 42.5,13.9 41.6,13.7 40.7,13.5 39.8,13.4 38.9,13.3 38,13.3 37.1,13.3 36.2,13.4 35.3,13.5 
			34.4,13.7 33.5,13.9 32.7,14.1 31.8,14.4 31,14.7 30.2,15.1 29.4,15.5 28.7,15.9 27.9,16.4 27.2,16.9 26.6,17.4 25.9,18 
			25.3,18.6 24.7,19.2 24.1,19.8 23.6,20.5 23.1,21.2 22.6,21.9 22.2,22.7 21.8,23.5 21.4,24.3 21.1,25.1 20.8,25.9 20.6,26.8 
			20.4,27.6 20.2,28.5 20.1,29.4 20,30.3 20,31.2 20,32.1 20.1,33.1 20.2,34 20.4,34.8 20.6,35.7 20.8,36.6 21.1,37.4 21.4,38.2 
			21.8,39 22.2,39.8 22.6,40.5 23.1,41.3 23.6,42 24.1,42.6 24.7,43.3 25.3,43.9 25.9,44.5 26.6,45.1 27.2,45.6 27.9,46.1 
			28.7,46.6 29.4,47 30.2,47.4 31,47.8 31.8,48.1 32.7,48.4 33.5,48.6 34.4,48.8 35.3,49 36.2,49.1 37.1,49.2 38,49.2 38,49.2 		"/>
		<polygon fill-rule="evenodd" clip-rule="evenodd" fill="#FBB231" points="47.9,20.2 57.4,20.2 57.4,19.2 48.7,19.2 47.9,20.2 
			47.9,20.2 		"/>
		<polygon fill-rule="evenodd" clip-rule="evenodd" fill="#FBB231" points="46.5,22.4 57.4,22.4 57.4,21.4 47,21.4 46.5,22.4 
			46.5,22.4 		"/>
		<polygon fill-rule="evenodd" clip-rule="evenodd" fill="#FBB231" points="45.4,24.5 57.4,24.5 57.4,23.5 45.8,23.5 45.4,24.5 
			45.4,24.5 		"/>
		<polygon fill-rule="evenodd" clip-rule="evenodd" fill="#FBB231" points="44.7,26.7 57.4,26.7 57.4,25.7 45,25.7 44.7,26.7 
			44.7,26.7 		"/>
		<polygon fill-rule="evenodd" clip-rule="evenodd" fill="#FBB231" points="45.1,37.2 57.5,37.2 57.5,36.2 44.8,36.2 45.1,37.2 
			45.1,37.2 		"/>
		<polygon fill-rule="evenodd" clip-rule="evenodd" fill="#FBB231" points="46,39.3 57.5,39.3 57.5,38.3 45.6,38.3 46,39.3 46,39.3 
					"/>
		<polygon fill-rule="evenodd" clip-rule="evenodd" fill="#FBB231" points="47.3,41.5 57.5,41.5 57.5,40.5 46.7,40.5 47.3,41.5 
			47.3,41.5 		"/>
		<polygon fill-rule="evenodd" clip-rule="evenodd" fill="#FBB231" points="49.1,43.6 57.5,43.6 57.5,42.7 48.2,42.7 49.1,43.6 
			49.1,43.6 		"/>
		<polygon fill-rule="evenodd" clip-rule="evenodd" fill="#FBB231" points="44.2,28.8 57.4,28.8 57.4,27.9 44.4,27.9 44.2,28.8 
			44.2,28.8 		"/>
		<polygon fill-rule="evenodd" clip-rule="evenodd" fill="#FBB231" points="52.3,35 57.3,35 57.3,34 52.5,34 52.3,35 52.3,35 		"/>
		<polygon fill-rule="evenodd" clip-rule="evenodd" fill="#FBB231" points="52.7,32.8 57.3,32.8 57.3,31.9 52.9,31.9 52.7,32.8 
			52.7,32.8 		"/>
		<polygon fill-rule="evenodd" clip-rule="evenodd" fill="#FBB231" points="43.9,31.9 45.2,31.9 45.2,32.8 44,32.8 43.9,31.9 
			43.9,31.9 		"/>
		<polygon fill-rule="evenodd" clip-rule="evenodd" fill="#FFFFFF" points="41.5,30.7 41.4,30.7 41.3,30.7 41.2,30.6 41.1,30.6 
			41.1,30.6 41,30.6 40.9,30.6 40.8,30.6 40.7,30.6 40.6,30.6 40.5,30.6 40.4,30.6 40.3,30.6 40.2,30.6 40,30.6 39.8,30.6 
			39.7,30.6 39.6,30.6 39.5,30.7 39.4,30.7 39.3,30.7 39.2,30.8 39.2,30.8 39.1,30.9 39.1,31 39.1,31 39,31.1 39,31.2 39.1,31.3 
			39.1,31.3 39.1,31.4 39.2,31.5 39.3,31.6 39.5,31.7 39.6,31.8 39.8,31.8 40,31.9 40.2,32 40.4,32 40.6,32.1 40.8,32.2 40.9,32.3 
			41.1,32.5 41.2,32.7 41.3,32.9 41.4,33.2 41.4,33.5 41.4,33.9 41.3,34.2 41.3,34.4 41.2,34.7 41,34.9 40.9,35 40.8,35.2 
			40.6,35.3 40.4,35.4 40.2,35.5 40,35.6 39.8,35.7 39.6,35.7 39.4,35.8 39.2,35.8 39,35.8 38.8,35.8 38.5,35.8 38.3,35.8 
			38.1,35.8 37.9,35.8 37.7,35.8 37.5,35.8 37.4,35.7 37.2,35.7 37.1,35.7 37,35.7 36.9,35.7 36.8,35.6 36.7,35.6 36.6,35.6 
			36.5,35.5 36.4,35.5 36.7,34.2 36.7,34.2 36.8,34.2 36.9,34.2 37,34.2 37.1,34.3 37.2,34.3 37.3,34.3 37.5,34.4 37.6,34.4 
			37.8,34.4 38,34.4 38.1,34.4 38.3,34.4 38.5,34.4 38.6,34.4 38.8,34.4 39,34.4 39.1,34.4 39.2,34.3 39.3,34.2 39.4,34.1 39.4,34 
			39.5,33.9 39.5,33.8 39.5,33.7 39.5,33.5 39.3,33.4 39.2,33.3 39,33.2 38.8,33.1 38.6,33 38.3,32.9 38.1,32.8 37.9,32.7 
			37.6,32.5 37.5,32.3 37.3,32.1 37.2,31.8 37.1,31.5 37.1,31.1 37.2,30.9 37.2,30.7 37.3,30.5 37.4,30.3 37.4,30.1 37.6,29.9 
			37.7,29.8 37.8,29.6 38,29.5 38.2,29.4 38.4,29.3 38.7,29.3 38.9,29.2 39.2,29.2 39.6,29.2 39.9,29.1 40.1,29.1 40.3,29.2 
			40.5,29.2 40.7,29.2 40.9,29.2 41,29.2 41.1,29.2 41.2,29.2 41.3,29.2 41.4,29.2 41.5,29.3 41.6,29.3 41.6,29.3 41.7,29.3 
			41.7,29.3 41.8,29.3 41.5,30.7 41.5,30.7 		"/>
		<polyline fill="none" stroke="#FFFFFF" stroke-width="0.216" stroke-miterlimit="2.6131" points="41.5,30.7 41.5,30.7 41.4,30.7 
			41.3,30.7 41.2,30.6 41.1,30.6 41.1,30.6 41,30.6 40.9,30.6 40.8,30.6 40.7,30.6 40.6,30.6 40.5,30.6 40.4,30.6 40.3,30.6 
			40.2,30.6 40,30.6 39.8,30.6 39.8,30.6 39.7,30.6 39.6,30.6 39.5,30.7 39.4,30.7 39.3,30.7 39.2,30.8 39.2,30.8 39.1,30.9 
			39.1,31 39.1,31 39,31.1 39,31.2 39.1,31.3 39.1,31.3 39.1,31.4 39.2,31.5 39.2,31.5 39.3,31.6 39.5,31.7 39.6,31.8 39.8,31.8 
			40,31.9 40.2,32 40.4,32 40.6,32.1 40.8,32.2 40.9,32.3 41.1,32.5 41.2,32.7 41.3,32.9 41.4,33.2 41.4,33.5 41.4,33.9 41.4,33.9 
			41.3,34.2 41.3,34.4 41.2,34.7 41,34.9 40.9,35 40.8,35.2 40.6,35.3 40.4,35.4 40.2,35.5 40,35.6 39.8,35.7 39.6,35.7 39.4,35.8 
			39.2,35.8 39,35.8 38.8,35.8 38.8,35.8 38.5,35.8 38.3,35.8 38.1,35.8 37.9,35.8 37.7,35.8 37.5,35.8 37.4,35.7 37.2,35.7 
			37.1,35.7 37,35.7 36.9,35.7 36.8,35.6 36.7,35.6 36.6,35.6 36.5,35.5 36.4,35.5 36.7,34.2 36.7,34.2 36.7,34.2 36.8,34.2 
			36.9,34.2 37,34.2 37.1,34.3 37.2,34.3 37.3,34.3 37.5,34.4 37.6,34.4 37.8,34.4 38,34.4 38.1,34.4 38.3,34.4 38.5,34.4 
			38.6,34.4 38.8,34.4 38.8,34.4 39,34.4 39.1,34.4 39.2,34.3 39.3,34.2 39.4,34.1 39.4,34 39.5,33.9 39.5,33.8 39.5,33.8 
			39.5,33.7 39.5,33.5 39.3,33.4 39.2,33.3 39,33.2 38.8,33.1 38.6,33 38.3,32.9 38.1,32.8 37.9,32.7 37.6,32.5 37.5,32.3 
			37.3,32.1 37.2,31.8 37.1,31.5 37.1,31.1 37.1,31.1 37.2,30.9 37.2,30.7 37.3,30.5 37.4,30.3 37.4,30.1 37.6,29.9 37.7,29.8 
			37.8,29.6 38,29.5 38.2,29.4 38.4,29.3 38.7,29.3 38.9,29.2 39.2,29.2 39.6,29.2 39.9,29.1 39.9,29.1 40.1,29.1 40.3,29.2 
			40.5,29.2 40.7,29.2 40.9,29.2 41,29.2 41.1,29.2 41.2,29.2 41.3,29.2 41.4,29.2 41.5,29.3 41.6,29.3 41.6,29.3 41.7,29.3 
			41.7,29.3 41.8,29.3 41.5,30.7 		"/>
		<polygon fill-rule="evenodd" clip-rule="evenodd" fill="#FFFFFF" points="42.9,27.8 44.6,27.8 44.3,29.3 45.3,29.3 45.1,30.6 
			44.1,30.6 43.5,34 43.5,34.1 43.5,34.2 43.6,34.3 43.6,34.4 43.8,34.4 43.9,34.4 44,34.5 44.2,34.5 44.3,34.5 44.4,34.5 
			44.5,34.4 44.6,34.4 44.7,34.4 44.7,34.4 44.8,34.4 44.8,34.4 44.6,35.5 44.5,35.5 44.5,35.5 44.5,35.6 44.4,35.6 44.4,35.6 
			44.3,35.6 44.3,35.6 44.2,35.7 44.2,35.7 44.1,35.7 44,35.7 43.9,35.7 43.9,35.7 43.8,35.7 43.7,35.7 43.6,35.8 43.1,35.8 
			42.9,35.7 42.7,35.7 42.5,35.7 42.3,35.6 42.2,35.6 42.1,35.5 42,35.4 41.9,35.4 41.8,35.3 41.8,35.2 41.7,35.1 41.7,35 
			41.7,34.8 41.7,34.7 41.7,34.6 41.8,34.4 42.9,27.8 42.9,27.8 		"/>
		<polyline fill="none" stroke="#FFFFFF" stroke-width="0.216" stroke-miterlimit="2.6131" points="42.9,27.8 44.6,27.8 44.3,29.3 
			45.3,29.3 45.1,30.6 44.1,30.6 43.5,34 43.5,34 43.5,34.1 43.5,34.2 43.6,34.3 43.6,34.4 43.8,34.4 43.9,34.4 44,34.5 44.2,34.5 
			44.2,34.5 44.3,34.5 44.4,34.5 44.5,34.4 44.6,34.4 44.7,34.4 44.7,34.4 44.8,34.4 44.8,34.4 44.6,35.5 44.6,35.5 44.5,35.5 
			44.5,35.5 44.5,35.6 44.4,35.6 44.4,35.6 44.3,35.6 44.3,35.6 44.2,35.7 44.2,35.7 44.1,35.7 44,35.7 43.9,35.7 43.9,35.7 
			43.8,35.7 43.7,35.7 43.6,35.8 43.1,35.8 43.1,35.8 42.9,35.7 42.7,35.7 42.5,35.7 42.3,35.6 42.2,35.6 42.1,35.5 42,35.4 
			41.9,35.4 41.8,35.3 41.8,35.2 41.7,35.1 41.7,35 41.7,34.8 41.7,34.7 41.7,34.6 41.8,34.4 42.9,27.8 		"/>
		<polyline fill="none" stroke="#FFFFFF" stroke-width="0.216" stroke-miterlimit="2.6131" points="46.7,32.9 46.7,32.9 46.7,33 
			46.7,33.1 46.7,33.3 46.7,33.4 46.7,33.5 46.8,33.6 46.9,33.7 46.9,33.8 47,33.9 47.1,34 47.2,34.1 47.3,34.2 47.4,34.2 
			47.5,34.3 47.7,34.3 47.8,34.4 47.8,34.4 47.9,34.4 48.1,34.4 48.2,34.4 48.4,34.4 48.6,34.4 48.7,34.4 48.9,34.4 49,34.4 
			49.2,34.4 49.4,34.4 49.5,34.3 49.7,34.3 49.9,34.2 50,34.1 50.2,34 50.4,33.9 50.2,35.4 50.2,35.4 50.1,35.5 50,35.5 49.9,35.6 
			49.8,35.6 49.7,35.6 49.6,35.6 49.5,35.7 49.4,35.7 49.3,35.7 49.2,35.7 49,35.7 48.9,35.7 48.7,35.8 48.6,35.8 48.4,35.8 
			48.2,35.8 48.2,35.8 47.9,35.8 47.6,35.7 47.3,35.7 47,35.6 46.7,35.5 46.4,35.4 46.1,35.2 45.9,35.1 45.6,34.9 45.4,34.6 
			45.2,34.3 45.1,34 45,33.7 44.9,33.3 44.9,32.8 44.9,32.3 44.9,32.3 45,32.1 45,31.9 45.1,31.7 45.1,31.4 45.2,31.1 45.3,30.9 
			45.5,30.6 45.6,30.4 45.8,30.1 46.1,29.9 46.3,29.7 46.6,29.5 47,29.4 47.4,29.2 47.8,29.2 48.3,29.1 48.3,29.1 48.5,29.2 
			48.8,29.2 49,29.2 49.3,29.3 49.5,29.4 49.8,29.5 50,29.6 50.2,29.8 50.4,30 50.5,30.2 50.6,30.5 50.7,30.8 50.8,31.2 50.8,31.6 
			50.7,32.1 50.6,32.6 50.6,33 46.2,33 46.5,31.8 49.1,31.8 49.1,31.8 49.1,31.6 49.1,31.5 49.1,31.3 49.1,31.2 49,31.1 49,31 
			48.9,30.9 48.9,30.8 48.8,30.7 48.7,30.7 48.6,30.6 48.6,30.6 48.5,30.5 48.4,30.5 48.3,30.5 48.1,30.5 48.1,30.5 48,30.5 
			47.9,30.5 47.8,30.5 47.7,30.6 47.6,30.6 47.5,30.7 47.4,30.7 47.4,30.8 47.3,30.9 47.2,31 47.1,31.1 47.1,31.2 47,31.3 47,31.4 
			46.9,31.5 46.9,31.7 46.7,32.9 		"/>
		<polygon fill-rule="evenodd" clip-rule="evenodd" fill="#FFFFFF" points="61.1,29.6 61,29.6 61,29.6 60.9,29.5 60.8,29.5 
			60.7,29.4 60.6,29.4 60.5,29.4 60.4,29.3 60.3,29.3 60.1,29.3 60,29.3 59.9,29.2 59.8,29.2 59.6,29.2 59.5,29.2 59.3,29.2 
			59.2,29.2 59,29.2 58.8,29.2 58.7,29.3 58.5,29.3 58.3,29.4 58.2,29.5 58,29.6 57.8,29.7 57.7,29.9 57.5,30.1 57.4,30.3 
			57.2,30.6 57.1,30.9 57,31.2 56.9,31.6 56.9,31.8 56.8,32 56.8,32.2 56.8,32.4 56.9,32.6 56.9,32.8 57,33 57,33.2 57.1,33.4 
			57.2,33.5 57.4,33.6 57.5,33.8 57.7,33.9 57.8,34 58.1,34.1 58.3,34.1 58.4,34.1 58.5,34.1 58.6,34.2 58.7,34.2 58.8,34.2 
			59,34.2 59.1,34.2 59.3,34.2 59.4,34.2 59.6,34.1 59.7,34.1 59.9,34 60,34 60.2,33.9 60.3,33.8 60.4,33.7 60.1,35.3 60.1,35.3 
			60.1,35.4 60,35.4 60,35.4 59.9,35.5 59.8,35.5 59.7,35.6 59.6,35.6 59.5,35.7 59.3,35.7 59.1,35.7 58.9,35.7 58.7,35.7 
			58.4,35.8 58.1,35.7 57.8,35.7 57.5,35.7 57.2,35.6 56.9,35.5 56.7,35.4 56.4,35.3 56.1,35.1 55.9,34.9 55.7,34.6 55.5,34.4 
			55.3,34.1 55.1,33.7 55,33.4 55,33 54.9,32.5 55,32.1 55,31.6 55.1,31.3 55.1,31.1 55.2,30.8 55.2,30.6 55.3,30.4 55.4,30.2 
			55.5,30 55.6,29.8 55.6,29.6 55.7,29.4 55.8,29.3 55.9,29.1 56.1,28.9 56.2,28.8 56.3,28.7 56.4,28.5 56.6,28.4 56.7,28.3 
			56.8,28.2 57,28.1 57.2,28 57.3,27.9 57.5,27.9 57.7,27.8 57.9,27.7 58,27.7 58.2,27.6 58.4,27.6 58.7,27.6 58.9,27.6 59.1,27.5 
			59.3,27.5 59.5,27.5 59.7,27.6 59.9,27.6 60.1,27.6 60.2,27.6 60.4,27.7 60.6,27.7 60.7,27.7 60.8,27.8 61,27.8 61.1,27.8 
			61.2,27.9 61.3,27.9 61.3,27.9 61.4,27.9 61.4,28 61.1,29.6 61.1,29.6 		"/>
		<polyline fill="none" stroke="#FFFFFF" stroke-width="0.216" stroke-miterlimit="2.6131" points="61.1,29.6 61.1,29.6 61,29.6 
			61,29.6 60.9,29.5 60.8,29.5 60.7,29.4 60.6,29.4 60.5,29.4 60.4,29.3 60.3,29.3 60.1,29.3 60,29.3 59.9,29.2 59.8,29.2 
			59.6,29.2 59.5,29.2 59.3,29.2 59.3,29.2 59.2,29.2 59,29.2 58.8,29.2 58.7,29.3 58.5,29.3 58.3,29.4 58.2,29.5 58,29.6 
			57.8,29.7 57.7,29.9 57.5,30.1 57.4,30.3 57.2,30.6 57.1,30.9 57,31.2 56.9,31.6 56.9,31.6 56.9,31.8 56.8,32 56.8,32.2 
			56.8,32.4 56.9,32.6 56.9,32.8 57,33 57,33.2 57.1,33.4 57.2,33.5 57.4,33.6 57.5,33.8 57.7,33.9 57.8,34 58.1,34.1 58.3,34.1 
			58.3,34.1 58.4,34.1 58.5,34.1 58.6,34.2 58.7,34.2 58.8,34.2 59,34.2 59.1,34.2 59.3,34.2 59.4,34.2 59.6,34.1 59.7,34.1 
			59.9,34 60,34 60.2,33.9 60.3,33.8 60.4,33.7 60.1,35.3 60.1,35.3 60.1,35.3 60.1,35.4 60,35.4 60,35.4 59.9,35.5 59.8,35.5 
			59.7,35.6 59.6,35.6 59.5,35.7 59.3,35.7 59.1,35.7 58.9,35.7 58.7,35.7 58.4,35.8 58.1,35.7 57.8,35.7 57.8,35.7 57.5,35.7 
			57.2,35.6 56.9,35.5 56.7,35.4 56.4,35.3 56.1,35.1 55.9,34.9 55.7,34.6 55.5,34.4 55.3,34.1 55.1,33.7 55,33.4 55,33 54.9,32.5 
			55,32.1 55,31.6 55,31.6 55.1,31.3 55.1,31.1 55.2,30.8 55.2,30.6 55.3,30.4 55.4,30.2 55.5,30 55.6,29.8 55.6,29.6 55.7,29.4 
			55.8,29.3 55.9,29.1 56.1,28.9 56.2,28.8 56.3,28.7 56.4,28.5 56.6,28.4 56.7,28.3 56.8,28.2 57,28.1 57.2,28 57.3,27.9 
			57.5,27.9 57.7,27.8 57.9,27.7 58,27.7 58.2,27.6 58.4,27.6 58.7,27.6 58.9,27.6 59.1,27.5 59.3,27.5 59.3,27.5 59.5,27.5 
			59.7,27.6 59.9,27.6 60.1,27.6 60.2,27.6 60.4,27.7 60.6,27.7 60.7,27.7 60.8,27.8 61,27.8 61.1,27.8 61.2,27.9 61.3,27.9 
			61.3,27.9 61.4,27.9 61.4,28 61.1,29.6 		"/>
		<polygon fill-rule="evenodd" clip-rule="evenodd" fill="#FFFFFF" points="76,35.8 74.3,35.8 74.5,35.1 74.5,35 74.4,35.1 
			74.3,35.3 74.2,35.4 74.1,35.4 73.9,35.5 73.8,35.6 73.7,35.6 73.6,35.7 73.5,35.7 73.4,35.8 73.3,35.8 73.1,35.8 73,35.8 
			72.9,35.8 72.8,35.8 72.7,35.8 72.3,35.8 72.1,35.8 71.8,35.7 71.5,35.5 71.3,35.3 71.1,35.1 71,34.9 70.8,34.7 70.7,34.4 
			70.6,34.1 70.5,33.8 70.5,33.5 70.5,33.2 70.5,32.9 70.5,32.6 70.6,32.3 70.7,31.9 70.8,31.6 70.9,31.2 71,31 71.2,30.7 
			71.4,30.4 71.6,30.2 71.8,30 72,29.8 72.2,29.7 72.4,29.6 72.7,29.5 72.9,29.4 73.1,29.3 73.4,29.3 73.6,29.3 73.8,29.3 74,29.3 
			74.1,29.3 74.3,29.4 74.4,29.4 74.5,29.5 74.7,29.5 74.8,29.6 74.9,29.7 75,29.8 75,29.8 75.1,29.9 75.2,30 75.2,30.1 75.3,30.1 
			75.3,30.2 75.3,30.2 75.7,27.8 77.4,27.8 76,35.8 76,35.8 		"/>
		<polyline fill="none" stroke="#FFFFFF" stroke-width="0.216" stroke-miterlimit="2.6131" points="76,35.8 74.3,35.8 74.5,35.1 
			74.5,35 74.5,35 74.4,35.1 74.3,35.3 74.2,35.4 74.1,35.4 73.9,35.5 73.8,35.6 73.7,35.6 73.6,35.7 73.5,35.7 73.4,35.8 
			73.3,35.8 73.1,35.8 73,35.8 72.9,35.8 72.8,35.8 72.7,35.8 72.7,35.8 72.3,35.8 72.1,35.8 71.8,35.7 71.5,35.5 71.3,35.3 
			71.1,35.1 71,34.9 70.8,34.7 70.7,34.4 70.6,34.1 70.5,33.8 70.5,33.5 70.5,33.2 70.5,32.9 70.5,32.6 70.6,32.3 70.6,32.3 
			70.7,31.9 70.8,31.6 70.9,31.2 71,31 71.2,30.7 71.4,30.4 71.6,30.2 71.8,30 72,29.8 72.2,29.7 72.4,29.6 72.7,29.5 72.9,29.4 
			73.1,29.3 73.4,29.3 73.6,29.3 73.6,29.3 73.8,29.3 74,29.3 74.1,29.3 74.3,29.4 74.4,29.4 74.5,29.5 74.7,29.5 74.8,29.6 
			74.9,29.7 75,29.8 75,29.8 75.1,29.9 75.2,30 75.2,30.1 75.3,30.1 75.3,30.2 75.3,30.2 75.7,27.8 77.4,27.8 76,35.8 		"/>
		<polygon fill-rule="evenodd" clip-rule="evenodd" fill="#FBB231" points="73.3,34.3 73.4,34.3 73.6,34.2 73.7,34.2 73.9,34.1 
			74,34.1 74.1,34 74.2,33.9 74.4,33.8 74.4,33.6 74.5,33.5 74.6,33.4 74.7,33.2 74.7,33.1 74.8,32.9 74.8,32.7 74.9,32.6 
			74.9,32.4 74.9,32.2 74.9,32.1 74.9,31.9 74.9,31.8 74.9,31.6 74.8,31.5 74.8,31.3 74.7,31.2 74.6,31.1 74.6,31 74.5,30.9 
			74.4,30.8 74.2,30.8 74.1,30.7 74,30.7 73.8,30.7 73.7,30.8 73.6,30.8 73.4,30.9 73.3,31 73.2,31.1 73.1,31.2 73,31.3 72.9,31.4 
			72.8,31.5 72.7,31.7 72.6,31.8 72.6,32 72.5,32.2 72.5,32.3 72.5,32.5 72.4,32.8 72.4,33.1 72.5,33.4 72.6,33.7 72.7,33.9 
			72.8,34.1 73,34.2 73.3,34.3 73.3,34.3 		"/>
		<polygon fill-rule="evenodd" clip-rule="evenodd" fill="#FFFFFF" points="36.1,34.4 35.9,35.8 34.3,35.8 34.4,35.5 34.4,35.3 
			34.4,35.1 34.5,35 34.4,35.1 34.3,35.2 34.2,35.3 34,35.4 33.9,35.5 33.7,35.6 33.6,35.6 33.4,35.7 33.2,35.7 33.1,35.8 
			32.9,35.8 32.7,35.8 32.5,35.9 32.4,35.9 32.2,35.8 32,35.8 31.8,35.8 31.6,35.7 31.5,35.6 31.3,35.5 31.2,35.4 31.1,35.3 
			31,35.2 30.9,35.1 30.8,35 30.7,34.8 30.7,34.7 30.7,34.6 30.6,34.4 30.6,34.3 30.6,34.2 30.6,34 30.6,33.8 30.7,33.6 30.7,33.3 
			30.8,33.1 30.9,32.9 31,32.8 31.1,32.6 31.3,32.5 31.4,32.3 31.6,32.2 31.8,32.1 31.9,32 32.1,31.9 32.3,31.8 32.5,31.8 
			32.8,31.7 32.8,31.7 32.8,31.7 32.8,31.7 32.9,31.7 33,31.7 33.1,31.7 33.2,31.7 33.3,31.7 33.4,31.7 33.5,31.6 33.6,31.6 
			33.7,31.6 33.8,31.6 33.9,31.6 33.9,31.6 34,31.6 34.1,31.6 34.3,31.6 34.4,31.6 34.6,31.6 34.7,31.6 34.8,31.6 34.8,31.6 
			34.8,31.6 34.8,31.6 34.9,31.5 34.9,31.4 34.9,31.2 34.9,31.1 34.8,31 34.8,30.9 34.7,30.8 34.6,30.7 34.4,30.7 34.3,30.6 
			34.1,30.6 34,30.6 33.8,30.6 33.6,30.6 33.4,30.6 33.2,30.6 33,30.6 32.8,30.7 32.6,30.7 32.4,30.7 32.3,30.7 32.1,30.8 32,30.8 
			31.8,30.8 31.7,30.9 31.6,30.9 31.6,30.9 32,29.5 32.1,29.4 32.3,29.4 32.4,29.3 32.6,29.3 32.7,29.3 32.9,29.3 33,29.2 
			33.2,29.2 33.4,29.2 33.5,29.2 33.7,29.2 33.9,29.2 34.1,29.2 34.3,29.2 34.5,29.2 34.7,29.2 34.9,29.2 35.1,29.3 35.3,29.3 
			35.4,29.3 35.6,29.4 35.8,29.5 36,29.6 36.2,29.7 36.3,29.9 36.4,30 36.6,30.2 36.7,30.3 36.7,30.5 36.8,30.7 36.8,31 36.7,31.2 
			36.1,34.4 36.1,34.4 		"/>
		<polyline fill="none" stroke="#FFFFFF" stroke-width="0.216" stroke-miterlimit="2.6131" points="36.1,34.4 35.9,35.8 34.3,35.8 
			34.3,35.8 34.4,35.5 34.4,35.3 34.4,35.1 34.5,35 34.5,35 34.4,35.1 34.3,35.2 34.2,35.3 34,35.4 33.9,35.5 33.7,35.6 33.6,35.6 
			33.4,35.7 33.2,35.7 33.1,35.8 32.9,35.8 32.7,35.8 32.5,35.9 32.4,35.9 32.2,35.8 32,35.8 32,35.8 31.8,35.8 31.6,35.7 
			31.5,35.6 31.3,35.5 31.2,35.4 31.1,35.3 31,35.2 30.9,35.1 30.8,35 30.7,34.8 30.7,34.7 30.7,34.6 30.6,34.4 30.6,34.3 
			30.6,34.2 30.6,34 30.6,34 30.6,33.8 30.7,33.6 30.7,33.3 30.8,33.1 30.9,32.9 31,32.8 31.1,32.6 31.3,32.5 31.4,32.3 31.6,32.2 
			31.8,32.1 31.9,32 32.1,31.9 32.3,31.8 32.5,31.8 32.8,31.7 32.8,31.7 32.8,31.7 32.8,31.7 32.8,31.7 32.9,31.7 33,31.7 
			33.1,31.7 33.2,31.7 33.3,31.7 33.4,31.7 33.5,31.6 33.6,31.6 33.7,31.6 33.8,31.6 33.9,31.6 33.9,31.6 34,31.6 34,31.6 
			34.1,31.6 34.3,31.6 34.4,31.6 34.6,31.6 34.7,31.6 34.8,31.6 34.8,31.6 34.8,31.6 34.8,31.6 34.8,31.6 34.9,31.5 34.9,31.4 
			34.9,31.2 34.9,31.2 34.9,31.1 34.8,31 34.8,30.9 34.7,30.8 34.6,30.7 34.4,30.7 34.3,30.6 34.1,30.6 34.1,30.6 34,30.6 
			33.8,30.6 33.6,30.6 33.4,30.6 33.2,30.6 33,30.6 32.8,30.7 32.6,30.7 32.4,30.7 32.3,30.7 32.1,30.8 32,30.8 31.8,30.8 
			31.7,30.9 31.6,30.9 31.6,30.9 32,29.5 32,29.5 32.1,29.4 32.3,29.4 32.4,29.3 32.6,29.3 32.7,29.3 32.9,29.3 33,29.2 33.2,29.2 
			33.4,29.2 33.5,29.2 33.7,29.2 33.9,29.2 34.1,29.2 34.3,29.2 34.5,29.2 34.7,29.2 34.7,29.2 34.9,29.2 35.1,29.3 35.3,29.3 
			35.4,29.3 35.6,29.4 35.8,29.5 36,29.6 36.2,29.7 36.3,29.9 36.4,30 36.6,30.2 36.7,30.3 36.7,30.5 36.8,30.7 36.8,31 36.7,31.2 
			36.1,34.4 		"/>
		<polygon fill-rule="evenodd" clip-rule="evenodd" fill="#EC1C2E" points="34.7,32.8 34.6,32.8 34.6,32.8 34.6,32.8 34.5,32.7 
			34.5,32.7 34.4,32.7 34.3,32.7 34.2,32.7 34.1,32.7 34,32.7 33.9,32.8 33.8,32.8 33.7,32.8 33.6,32.8 33.6,32.8 33.5,32.8 
			33.4,32.8 33.4,32.9 33.3,32.9 33.3,32.9 33.2,33 33.1,33 33,33 32.9,33.1 32.9,33.1 32.8,33.2 32.7,33.3 32.6,33.4 32.6,33.4 
			32.5,33.5 32.5,33.6 32.5,33.7 32.5,33.9 32.5,34.1 32.6,34.2 32.6,34.3 32.7,34.4 32.8,34.4 32.9,34.4 33,34.4 33.2,34.4 
			33.4,34.4 33.5,34.4 33.7,34.3 33.8,34.3 33.9,34.2 34,34.2 34.1,34.1 34.2,34 34.3,34 34.3,33.9 34.4,33.8 34.4,33.8 34.4,33.7 
			34.5,33.6 34.5,33.6 34.5,33.4 34.6,33.2 34.6,33 34.7,32.8 34.7,32.8 		"/>
		<polygon fill-rule="evenodd" clip-rule="evenodd" fill="#FFFFFF" points="23.4,35.8 21.7,35.8 23.1,27.8 26,27.8 26.2,32.5 
			28.2,27.8 31.2,27.8 29.8,35.8 28.2,35.8 29.2,29.8 29.1,29.8 26.7,35.8 24.8,35.8 24.8,35.5 24.8,34.8 24.7,33.9 24.6,32.8 
			24.6,31.8 24.5,30.8 24.5,30.1 24.5,29.8 24.5,29.8 24.4,29.8 24.4,29.8 24.4,29.8 23.4,35.8 23.4,35.8 		"/>
		<polyline fill="none" stroke="#FFFFFF" stroke-width="0.216" stroke-miterlimit="2.6131" points="23.4,35.8 21.7,35.8 23.1,27.8 
			26,27.8 26.2,32.5 28.2,27.8 31.2,27.8 29.8,35.8 28.2,35.8 29.2,29.8 29.1,29.8 26.7,35.8 24.8,35.8 24.8,35.8 24.8,35.5 
			24.8,34.8 24.7,33.9 24.6,32.8 24.6,31.8 24.5,30.8 24.5,30.1 24.5,29.8 24.5,29.8 24.5,29.8 24.4,29.8 24.4,29.8 24.4,29.8 
			23.4,35.8 		"/>
		<polygon fill-rule="evenodd" clip-rule="evenodd" fill="#FFFFFF" points="66.1,34.4 65.9,35.8 64.4,35.8 64.4,35.5 64.4,35.3 
			64.4,35.1 64.4,35.1 64.3,35.1 64.2,35.2 64.1,35.3 64,35.4 63.9,35.5 63.7,35.6 63.6,35.6 63.4,35.7 63.3,35.7 63.1,35.8 
			62.9,35.8 62.8,35.8 62.6,35.9 62.4,35.9 62.3,35.8 62.1,35.8 61.9,35.8 61.7,35.7 61.5,35.6 61.4,35.5 61.2,35.4 61.1,35.3 
			61,35.2 60.9,35.1 60.9,35 60.8,34.8 60.7,34.7 60.7,34.6 60.7,34.4 60.7,34.3 60.7,34.2 60.7,34 60.7,33.8 60.7,33.6 60.8,33.3 
			60.8,33.1 60.9,32.9 61.1,32.8 61.2,32.6 61.3,32.5 61.5,32.3 61.6,32.2 61.8,32.1 62,32 62.2,31.9 62.4,31.8 62.6,31.8 
			62.8,31.7 62.8,31.7 62.8,31.7 62.9,31.7 62.9,31.7 63,31.7 63.1,31.7 63.2,31.7 63.3,31.7 63.4,31.7 63.5,31.6 63.6,31.6 
			63.7,31.6 63.8,31.6 63.9,31.6 64,31.6 64,31.6 64.2,31.6 64.3,31.6 64.5,31.6 64.6,31.6 64.7,31.6 64.8,31.6 64.9,31.6 
			64.9,31.6 64.9,31.6 64.9,31.5 64.9,31.4 65,31.2 64.9,31.1 64.9,31 64.8,30.9 64.7,30.8 64.6,30.7 64.5,30.7 64.3,30.6 
			64.2,30.6 64,30.6 63.8,30.6 63.7,30.6 63.5,30.6 63.3,30.6 63.1,30.6 62.9,30.7 62.7,30.7 62.5,30.7 62.3,30.7 62.2,30.8 
			62,30.8 61.9,30.8 61.8,30.9 61.7,30.9 61.6,30.9 62.1,29.5 62.2,29.4 62.3,29.4 62.5,29.3 62.6,29.3 62.8,29.3 62.9,29.3 
			63.1,29.2 63.2,29.2 63.4,29.2 63.6,29.2 63.8,29.2 63.9,29.2 64.1,29.2 64.3,29.2 64.5,29.2 64.7,29.2 64.9,29.2 65.1,29.3 
			65.3,29.3 65.5,29.3 65.7,29.4 65.8,29.5 66,29.6 66.2,29.7 66.4,29.9 66.5,30 66.6,30.2 66.7,30.3 66.8,30.5 66.8,30.7 66.8,31 
			66.8,31.2 66.1,34.4 66.1,34.4 		"/>
		<polygon fill-rule="evenodd" clip-rule="evenodd" fill="#FFFFFF" points="65.9,35.8 65.9,35.8 66.2,34.4 66.1,34.4 65.9,35.8 
			65.9,35.7 65.9,35.8 65.9,35.8 65.9,35.8 65.9,35.8 65.9,35.8 		"/>
		<polygon fill-rule="evenodd" clip-rule="evenodd" fill="#FFFFFF" points="64.3,35.8 64.4,35.8 65.9,35.8 65.9,35.7 64.4,35.7 
			64.4,35.8 64.3,35.8 64.3,35.8 64.4,35.8 64.3,35.8 64.3,35.8 		"/>
		<polygon fill-rule="evenodd" clip-rule="evenodd" fill="#FFFFFF" points="64.4,35.1 64.4,35 64.4,35.1 64.4,35.3 64.4,35.5 
			64.3,35.8 64.4,35.8 64.4,35.5 64.4,35.3 64.4,35.1 64.4,35.1 64.4,35 64.4,35.1 64.4,35.1 		"/>
		<polygon fill-rule="evenodd" clip-rule="evenodd" fill="#FFFFFF" points="62.1,35.9 62.1,35.9 62.3,35.9 62.4,35.9 62.6,35.9 
			62.8,35.9 62.9,35.9 63.1,35.8 63.3,35.8 63.4,35.7 63.6,35.7 63.8,35.6 63.9,35.5 64,35.4 64.2,35.4 64.3,35.3 64.4,35.2 
			64.4,35.1 64.4,35 64.3,35.1 64.2,35.2 64.1,35.3 64,35.4 63.9,35.4 63.7,35.5 63.6,35.6 63.4,35.7 63.3,35.7 63.1,35.8 
			62.9,35.8 62.8,35.8 62.6,35.8 62.4,35.8 62.3,35.8 62.1,35.8 62.1,35.8 62.1,35.9 62.1,35.9 		"/>
		<polygon fill-rule="evenodd" clip-rule="evenodd" fill="#FFFFFF" points="60.6,34 60.6,34 60.6,34.2 60.6,34.3 60.7,34.4 
			60.7,34.6 60.7,34.7 60.8,34.8 60.8,35 60.9,35.1 61,35.2 61.1,35.4 61.2,35.5 61.3,35.6 61.5,35.7 61.7,35.7 61.9,35.8 
			62.1,35.9 62.1,35.8 61.9,35.7 61.7,35.7 61.5,35.6 61.4,35.5 61.2,35.4 61.1,35.3 61,35.2 61,35.1 60.9,34.9 60.8,34.8 
			60.8,34.7 60.8,34.6 60.7,34.4 60.7,34.3 60.7,34.2 60.7,34 60.7,34 60.6,34 60.6,34 		"/>
		<polygon fill-rule="evenodd" clip-rule="evenodd" fill="#FFFFFF" points="62.8,31.7 62.8,31.7 62.6,31.7 62.4,31.8 62.2,31.9 
			62,31.9 61.8,32 61.6,32.2 61.4,32.3 61.3,32.4 61.1,32.6 61,32.7 60.9,32.9 60.8,33.1 60.7,33.3 60.7,33.6 60.6,33.8 60.6,34 
			60.7,34 60.7,33.8 60.7,33.6 60.8,33.4 60.9,33.2 61,33 61.1,32.8 61.2,32.6 61.3,32.5 61.5,32.3 61.7,32.2 61.8,32.1 62,32 
			62.2,31.9 62.4,31.9 62.6,31.8 62.8,31.8 62.8,31.8 62.8,31.7 62.8,31.7 		"/>
		<polygon fill-rule="evenodd" clip-rule="evenodd" fill="#FFFFFF" points="64,31.6 64,31.6 64,31.6 63.9,31.6 63.8,31.6 63.7,31.6 
			63.6,31.6 63.5,31.6 63.4,31.6 63.3,31.6 63.2,31.6 63.1,31.7 63,31.7 62.9,31.7 62.9,31.7 62.8,31.7 62.8,31.7 62.8,31.7 
			62.8,31.8 62.8,31.8 62.8,31.8 62.9,31.8 62.9,31.8 63,31.7 63.1,31.7 63.2,31.7 63.3,31.7 63.4,31.7 63.5,31.7 63.6,31.7 
			63.7,31.7 63.8,31.7 63.9,31.7 64,31.7 64,31.7 64,31.7 64,31.6 64,31.6 		"/>
		<polygon fill-rule="evenodd" clip-rule="evenodd" fill="#FFFFFF" points="64.9,31.6 64.9,31.6 64.9,31.6 64.8,31.6 64.7,31.6 
			64.6,31.6 64.5,31.6 64.3,31.6 64.2,31.6 64,31.6 64,31.7 64.2,31.7 64.3,31.7 64.5,31.7 64.6,31.7 64.7,31.7 64.8,31.7 
			64.9,31.7 64.9,31.7 64.9,31.6 64.9,31.7 64.9,31.7 64.9,31.6 64.9,31.6 64.9,31.6 		"/>
		<polygon fill-rule="evenodd" clip-rule="evenodd" fill="#FFFFFF" points="64.9,31.2 64.9,31.2 64.9,31.4 64.9,31.5 64.9,31.6 
			64.9,31.6 64.9,31.6 64.9,31.6 65,31.5 65,31.4 65,31.2 65,31.2 64.9,31.2 64.9,31.2 		"/>
		<polygon fill-rule="evenodd" clip-rule="evenodd" fill="#FFFFFF" points="64.2,30.6 64.2,30.7 64.3,30.7 64.5,30.7 64.6,30.8 
			64.7,30.8 64.8,30.9 64.8,31 64.9,31.1 64.9,31.2 65,31.2 65,31.1 64.9,31 64.8,30.9 64.7,30.8 64.6,30.7 64.5,30.6 64.3,30.6 
			64.2,30.6 64.2,30.6 64.2,30.6 64.2,30.6 		"/>
		<polygon fill-rule="evenodd" clip-rule="evenodd" fill="#FFFFFF" points="61.6,30.9 61.7,31 61.7,30.9 61.8,30.9 61.9,30.9 
			62,30.8 62.2,30.8 62.3,30.8 62.5,30.7 62.7,30.7 62.9,30.7 63.1,30.7 63.3,30.7 63.5,30.6 63.7,30.6 63.8,30.6 64,30.6 
			64.2,30.6 64.2,30.6 64,30.6 63.8,30.6 63.7,30.6 63.5,30.6 63.3,30.6 63.1,30.6 62.9,30.6 62.7,30.6 62.5,30.7 62.3,30.7 
			62.2,30.7 62,30.8 61.9,30.8 61.8,30.8 61.7,30.9 61.6,30.9 61.7,31 61.6,30.9 61.6,30.9 		"/>
		<polygon fill-rule="evenodd" clip-rule="evenodd" fill="#FFFFFF" points="62,29.4 62,29.5 61.6,30.9 61.7,31 62.1,29.5 62.1,29.5 
			62,29.4 62,29.5 62,29.5 62,29.4 62,29.4 		"/>
		<polygon fill-rule="evenodd" clip-rule="evenodd" fill="#FFFFFF" points="64.7,29.2 64.7,29.2 64.5,29.2 64.3,29.2 64.1,29.2 
			63.9,29.2 63.8,29.2 63.6,29.2 63.4,29.2 63.2,29.2 63.1,29.2 62.9,29.2 62.8,29.2 62.6,29.3 62.5,29.3 62.3,29.3 62.2,29.4 
			62,29.4 62.1,29.5 62.2,29.5 62.3,29.4 62.5,29.4 62.6,29.3 62.8,29.3 62.9,29.3 63.1,29.3 63.2,29.3 63.4,29.2 63.6,29.2 
			63.8,29.2 63.9,29.2 64.1,29.2 64.3,29.2 64.5,29.2 64.7,29.2 64.7,29.2 64.7,29.2 64.7,29.2 		"/>
		<polygon fill-rule="evenodd" clip-rule="evenodd" fill="#FFFFFF" points="66.8,31.2 66.8,31.2 66.8,31 66.8,30.7 66.8,30.5 
			66.7,30.3 66.6,30.1 66.5,30 66.4,29.8 66.2,29.7 66,29.6 65.9,29.5 65.7,29.4 65.5,29.3 65.3,29.3 65.1,29.2 64.9,29.2 
			64.7,29.2 64.7,29.2 64.9,29.3 65.1,29.3 65.3,29.3 65.5,29.4 65.6,29.5 65.8,29.5 66,29.6 66.2,29.8 66.3,29.9 66.5,30 
			66.6,30.2 66.7,30.4 66.7,30.5 66.8,30.7 66.8,31 66.7,31.2 66.7,31.2 66.8,31.2 66.8,31.2 		"/>
		<polygon fill-rule="evenodd" clip-rule="evenodd" fill="#FFFFFF" points="66.2,34.4 66.2,34.4 66.8,31.2 66.7,31.2 66.1,34.4 
			66.1,34.4 66.2,34.4 66.2,34.4 		"/>
		<polygon fill-rule="evenodd" clip-rule="evenodd" fill="#FBB231" points="64.7,32.8 64.7,32.8 64.6,32.8 64.6,32.7 64.5,32.7 
			64.5,32.7 64.4,32.7 64.3,32.7 64.2,32.7 64.1,32.7 64,32.7 63.9,32.8 63.8,32.8 63.7,32.8 63.7,32.8 63.6,32.8 63.5,32.8 
			63.5,32.8 63.4,32.9 63.4,32.9 63.3,32.9 63.2,32.9 63.2,33 63.1,33 63,33.1 62.9,33.1 62.8,33.2 62.8,33.3 62.7,33.3 62.6,33.4 
			62.6,33.5 62.6,33.6 62.6,33.7 62.5,33.9 62.6,34.1 62.6,34.2 62.7,34.3 62.8,34.4 62.9,34.4 63,34.4 63.1,34.4 63.3,34.4 
			63.4,34.4 63.6,34.4 63.7,34.3 63.9,34.3 64,34.2 64.1,34.2 64.2,34.1 64.3,34 64.4,33.9 64.4,33.9 64.5,33.8 64.5,33.7 
			64.5,33.6 64.6,33.6 64.6,33.5 64.6,33.3 64.6,33.2 64.7,33 64.7,32.8 64.7,32.8 		"/>
		<polygon fill-rule="evenodd" clip-rule="evenodd" fill="#FFFFFF" points="77.1,34.9 77.2,34.8 77.2,34.6 77.3,34.5 77.4,34.4 
			77.5,34.2 77.7,34.2 77.8,34.1 78,34.1 78.2,34.1 78.3,34.2 78.5,34.2 78.6,34.4 78.7,34.5 78.8,34.6 78.8,34.8 78.8,34.9 
			78.7,34.9 78.7,34.8 78.6,34.7 78.6,34.6 78.5,34.5 78.4,34.4 78.3,34.3 78.1,34.3 78,34.3 77.9,34.3 77.7,34.3 77.6,34.4 
			77.5,34.5 77.4,34.6 77.4,34.7 77.3,34.8 77.3,34.9 77.1,34.9 77.1,34.9 		"/>
		<polygon fill-rule="evenodd" clip-rule="evenodd" fill="#FFFFFF" points="77.7,34.9 77.7,34.6 78,34.6 78.1,34.6 78.2,34.6 
			78.2,34.6 78.3,34.6 78.3,34.7 78.3,34.7 78.3,34.7 78.3,34.8 78.3,34.8 78.3,34.9 78.3,34.9 78.3,34.9 78,34.9 78,34.9 
			78.1,34.9 78.1,34.9 78.2,34.9 78.2,34.9 78.2,34.9 78.2,34.8 78.2,34.8 78.2,34.8 78.2,34.7 78.2,34.7 78.2,34.7 78.1,34.7 
			78.1,34.7 78.1,34.7 78,34.7 77.8,34.7 77.8,34.9 77.7,34.9 77.7,34.9 		"/>
		<polygon fill-rule="evenodd" clip-rule="evenodd" fill="#FFFFFF" points="77.1,34.9 77.1,35 77.2,35.1 77.2,35.3 77.3,35.4 
			77.4,35.6 77.5,35.7 77.7,35.8 77.8,35.8 78,35.8 78.2,35.8 78.3,35.8 78.5,35.7 78.6,35.6 78.7,35.4 78.8,35.3 78.8,35.1 
			78.8,35 78.8,34.9 78.7,34.9 78.7,35 78.7,35.1 78.6,35.2 78.6,35.4 78.5,35.5 78.4,35.5 78.3,35.6 78.1,35.7 78,35.7 77.9,35.7 
			77.7,35.6 77.6,35.5 77.5,35.5 77.4,35.4 77.4,35.2 77.3,35.1 77.3,35 77.3,34.9 77.1,34.9 77.1,34.9 		"/>
		<polygon fill-rule="evenodd" clip-rule="evenodd" fill="#FFFFFF" points="77.7,34.9 77.7,35.3 77.8,35.3 77.8,35 78,35 78.2,35.3 
			78.3,35.3 78.1,35 78.2,35 78.2,35 78.2,35 78.3,34.9 78.3,34.9 78,34.9 78,34.9 77.8,34.9 77.8,34.9 77.7,34.9 77.7,34.9 		"/>
		<path fill="none" stroke="#FFFFFF" stroke-width="0.216" stroke-miterlimit="2.6131" d="M77.1,35L77.1,35l0-0.2l0-0.2l0.1-0.1
			l0.1-0.1l0.1-0.1l0.1-0.1l0.2,0l0.2,0l0,0l0.2,0l0.2,0l0.1,0.1l0.1,0.1l0.1,0.1l0.1,0.1l0,0.2l0,0.2l0,0l0,0.2l0,0.2l-0.1,0.1
			l-0.1,0.1l-0.1,0.1l-0.1,0.1l-0.2,0l-0.2,0l0,0l-0.2,0l-0.2,0l-0.1-0.1l-0.1-0.1l-0.1-0.1l-0.1-0.1l0-0.2L77.1,35 M77.8,35.3h-0.2
			v-0.7H78l0,0l0.1,0l0.1,0l0,0l0,0l0,0l0,0l0,0l0,0l0,0l0,0.1l0,0l0,0l0,0l0,0l0,0l0,0h0l0.2,0.3h-0.1L78,35h-0.2V35.3 M78,34.9
			L78,34.9L78,34.9L78,34.9l0.1,0l0,0l0,0l0,0l0,0v0l0,0l0,0l0,0l0,0l0,0l0,0l0,0h0h0h-0.2v0.2H78 M78,35.7L78,35.7l0.1,0l0.1,0
			l0.1-0.1l0.1-0.1l0.1-0.1l0.1-0.1l0-0.1l0-0.1l0,0l0-0.1l0-0.1l-0.1-0.1l-0.1-0.1l-0.1-0.1l-0.1-0.1l-0.1,0l-0.1,0l0,0l-0.1,0
			l-0.1,0l-0.1,0.1l-0.1,0.1l-0.1,0.1l-0.1,0.1l0,0.1l0,0.1l0,0l0,0.1l0,0.1l0.1,0.1l0.1,0.1l0.1,0.1l0.1,0.1l0.1,0L78,35.7"/>
		<polygon fill-rule="evenodd" clip-rule="evenodd" fill="#FFFFFF" points="66.6,35.8 68.3,35.8 68.3,35.8 68.9,32.3 68.9,32.2 
			69,32 69,31.9 69.1,31.8 69.1,31.6 69.2,31.5 69.3,31.4 69.4,31.3 69.5,31.2 69.6,31.1 69.7,31 69.9,30.9 70.1,30.9 70.3,30.8 
			70.5,30.8 70.7,30.8 70.8,30.8 70.8,30.8 70.9,30.8 70.9,30.8 71.1,29.2 71,29.2 70.8,29.2 70.7,29.3 70.5,29.3 70.4,29.4 
			70.2,29.4 70.1,29.5 70,29.6 69.9,29.6 69.8,29.7 69.7,29.8 69.6,29.9 69.5,30 69.4,30.1 69.3,30.2 69.2,30.4 69.4,29.3 
			67.7,29.3 66.6,35.8 66.6,35.8 66.6,35.8 		"/>
		<polyline fill="none" stroke="#FFFFFF" stroke-width="0.216" stroke-miterlimit="2.6131" points="66.6,35.8 68.3,35.8 68.3,35.8 
			68.9,32.3 68.9,32.3 68.9,32.2 69,32 69,31.9 69.1,31.8 69.1,31.6 69.2,31.5 69.3,31.4 69.4,31.3 69.5,31.2 69.6,31.1 69.7,31 
			69.9,30.9 70.1,30.9 70.3,30.8 70.5,30.8 70.7,30.8 70.7,30.8 70.8,30.8 70.8,30.8 70.9,30.8 70.9,30.8 71.1,29.2 71.1,29.2 
			71,29.2 70.8,29.2 70.7,29.3 70.5,29.3 70.4,29.4 70.2,29.4 70.1,29.5 70,29.6 69.9,29.6 69.8,29.7 69.7,29.8 69.6,29.9 69.5,30 
			69.4,30.1 69.3,30.2 69.2,30.4 69.4,29.3 67.7,29.3 66.6,35.8 66.6,35.8 		"/>
		<polygon fill-rule="evenodd" clip-rule="evenodd" fill="#FFFFFF" points="50.6,35.8 52.3,35.8 52.3,35.8 52.9,32.3 52.9,32.2 
			52.9,32.1 53,31.9 53,31.8 53.1,31.7 53.1,31.6 53.2,31.5 53.3,31.4 53.4,31.3 53.5,31.2 53.6,31.1 53.8,31 53.9,31 54.1,30.9 
			54.3,30.9 54.6,30.9 54.6,30.9 54.6,30.9 54.6,30.9 54.7,30.9 54.7,30.9 54.7,30.9 54.7,30.9 54.7,30.9 54.8,30.9 54.8,30.8 
			54.8,30.7 54.8,30.6 54.9,30.4 54.9,30.2 55,30.1 55,29.9 55.1,29.8 55.1,29.7 55.2,29.6 55.3,29.5 55.3,29.4 55.3,29.3 
			55.4,29.3 55.4,29.2 55.4,29.2 55.4,29.2 55.3,29.2 55.3,29.2 55.2,29.2 55.2,29.2 55.2,29.2 55.1,29.2 54.9,29.2 54.8,29.2 
			54.6,29.3 54.5,29.3 54.3,29.4 54.2,29.4 54.1,29.5 54,29.5 53.9,29.6 53.8,29.7 53.7,29.8 53.6,29.9 53.5,30 53.4,30.1 
			53.3,30.2 53.2,30.4 53.4,29.3 51.7,29.3 50.6,35.8 50.6,35.8 50.6,35.8 		"/>
		<polyline fill="none" stroke="#FFFFFF" stroke-width="0.216" stroke-miterlimit="2.6131" points="50.6,35.8 52.3,35.8 52.3,35.8 
			52.9,32.3 52.9,32.3 52.9,32.2 52.9,32.1 53,31.9 53,31.8 53.1,31.7 53.1,31.6 53.2,31.5 53.3,31.4 53.4,31.3 53.5,31.2 
			53.6,31.1 53.8,31 53.9,31 54.1,30.9 54.3,30.9 54.6,30.9 54.6,30.9 54.6,30.9 54.6,30.9 54.6,30.9 54.7,30.9 54.7,30.9 
			54.7,30.9 54.7,30.9 54.7,30.9 54.7,30.9 54.8,30.9 54.8,30.8 54.8,30.7 54.8,30.6 54.9,30.4 54.9,30.2 55,30.1 55,29.9 55,29.9 
			55.1,29.8 55.1,29.7 55.2,29.6 55.3,29.5 55.3,29.4 55.3,29.3 55.4,29.3 55.4,29.2 55.4,29.2 55.4,29.2 55.4,29.2 55.3,29.2 
			55.3,29.2 55.2,29.2 55.2,29.2 55.2,29.2 55.1,29.2 55.1,29.2 54.9,29.2 54.8,29.2 54.6,29.3 54.5,29.3 54.3,29.4 54.2,29.4 
			54.1,29.5 54,29.5 53.9,29.6 53.8,29.7 53.7,29.8 53.6,29.9 53.5,30 53.4,30.1 53.3,30.2 53.2,30.4 53.4,29.3 51.7,29.3 
			50.6,35.8 50.6,35.8 		"/>
		<polygon fill-rule="evenodd" clip-rule="evenodd" fill="#FBB231" points="77.2,42.1 77.2,42.1 77.2,41.9 77.3,41.8 77.4,41.7 
			77.5,41.6 77.7,41.5 77.8,41.5 78,41.5 78.2,41.5 78.3,41.5 78.5,41.6 78.6,41.7 78.7,41.8 78.8,41.9 78.8,42.1 78.8,42.1 
			78.7,42.1 78.6,42 78.6,41.9 78.5,41.8 78.4,41.7 78.3,41.6 78.1,41.6 78,41.6 77.9,41.6 77.7,41.6 77.6,41.7 77.5,41.8 
			77.4,41.9 77.4,42 77.3,42.1 77.2,42.1 77.2,42.1 		"/>
		<polygon fill-rule="evenodd" clip-rule="evenodd" fill="#FBB231" points="77.7,42.1 77.7,41.9 78,41.9 78.1,41.9 78.2,41.9 
			78.2,41.9 78.3,42 78.3,42 78.3,42 78.3,42.1 78.3,42.1 78.2,42.1 78.2,42.1 78.2,42.1 78.2,42 78.2,42 78.2,42 78.1,42 78.1,42 
			78.1,42 78,42 77.8,42 77.8,42.1 77.7,42.1 77.7,42.1 		"/>
		<polygon fill-rule="evenodd" clip-rule="evenodd" fill="#FBB231" points="77.1,42.3 77.2,42.1 77.3,42.1 77.3,42.1 77.3,42.3 
			77.1,42.3 77.1,42.3 		"/>
		<polygon fill-rule="evenodd" clip-rule="evenodd" fill="#FBB231" points="77.7,42.3 77.7,42.1 77.8,42.1 77.8,42.2 78,42.2 
			78,42.2 78.1,42.2 78.1,42.2 78.2,42.2 78.2,42.2 78.2,42.2 78.2,42.1 78.2,42.1 78.3,42.1 78.3,42.1 78.3,42.2 78.3,42.2 
			78.3,42.2 78.3,42.3 77.7,42.3 77.7,42.3 		"/>
		<polygon fill-rule="evenodd" clip-rule="evenodd" fill="#FBB231" points="78.7,42.3 78.7,42.1 78.7,42.1 78.8,42.1 78.8,42.3 
			78.7,42.3 78.7,42.3 		"/>
		<polygon fill-rule="evenodd" clip-rule="evenodd" fill="#FBB231" points="77.1,42.3 77.1,42.3 77.2,42.4 77.2,42.6 77.3,42.8 
			77.4,42.9 77.5,43 77.7,43.1 77.8,43.1 78,43.1 78.2,43.1 78.3,43.1 78.5,43 78.6,42.9 78.7,42.8 78.8,42.6 78.8,42.4 78.8,42.3 
			78.8,42.3 78.7,42.3 78.7,42.3 78.7,42.4 78.6,42.6 78.6,42.7 78.5,42.8 78.4,42.9 78.3,42.9 78.1,43 78,43 77.9,43 77.7,42.9 
			77.6,42.9 77.5,42.8 77.4,42.7 77.4,42.6 77.3,42.4 77.3,42.3 77.3,42.3 77.1,42.3 77.1,42.3 		"/>
		<polygon fill-rule="evenodd" clip-rule="evenodd" fill="#FBB231" points="77.7,42.3 77.7,42.6 77.8,42.6 77.8,42.3 78,42.3 
			78.2,42.6 78.3,42.6 78.1,42.3 78.2,42.3 78.2,42.3 78.2,42.3 78.3,42.3 78.3,42.3 77.7,42.3 77.7,42.3 		"/>
		<path fill-rule="evenodd" clip-rule="evenodd" fill="#FFFFFF" d="M50.8,31.2l0-0.4l-0.1-0.3l-0.1-0.3L50.4,30l-0.2-0.2L50,29.6
			l-0.2-0.1l-0.2-0.1l-0.2-0.1L49,29.2l-0.2,0l-0.2,0l-0.2,0l-0.5,0l-0.4,0.1L47,29.4l-0.4,0.2l-0.3,0.2l-0.3,0.2l-0.2,0.2l-0.2,0.2
			l-0.2,0.3l-0.1,0.3l-0.1,0.3l-0.1,0.3l-0.1,0.3l0,0.2l0,0.2l0,0.2l0,0.5l0,0.4l0.1,0.4l0.1,0.4l0.1,0.3l0.2,0.3l0.2,0.2l0.2,0.2
			l0.3,0.2l0.3,0.2l0.3,0.1l0.3,0.1l0.3,0.1l0.3,0l0.3,0l0.3,0h0.2l0.2,0h0.2l0.2,0l0.1,0l0.1,0l0.1,0l0.1,0l0.1,0l0.1,0l0.1,0
			l0.1,0l0.1,0l0.1,0l0.1,0l0.1,0l0.2-1.5L50.2,34L50,34.1l-0.2,0.1l-0.2,0.1l-0.2,0.1l-0.2,0l-0.2,0l-0.2,0l-0.2,0l-0.2,0h-0.2
			l-0.2,0l-0.2,0l-0.2,0l-0.1,0l-0.2,0l-0.1,0l-0.1,0l-0.1-0.1l-0.1-0.1l-0.1-0.1L47.1,34L47,33.9l-0.1-0.1l-0.1-0.1l-0.1-0.1l0-0.1
			l0-0.1l0-0.1l0-0.1l0-0.1l0-0.1h3.9l0-0.4l0.1-0.5l0-0.5L50.8,31.2z M49.1,31.8h-2.2l0,0l0,0l0-0.1l0-0.1l0-0.1l0-0.1l0.1-0.1
			l0.1-0.1l0.1-0.1l0.1-0.1l0.1-0.1l0.1-0.1l0.1-0.1l0.1-0.1l0.1,0l0.1,0l0.1,0l0.1,0l0.1,0l0.1,0l0.1,0l0.1,0l0.1,0l0.1,0l0.1,0.1
			l0.1,0.1l0.1,0.1l0.1,0.1L49,31l0,0.1l0,0.1l0,0.1l0,0.1l0,0.1L49.1,31.8z"/>
	</g>
</g>
</svg>
