<?xml version="1.0" encoding="utf-8"?>
<!-- Generator: Adobe Illustrator 18.0.0, SVG Export Plug-In . SVG Version: 6.00 Build 0)  -->
<!DOCTYPE svg PUBLIC "-//W3C//DTD SVG 1.1//EN" "http://www.w3.org/Graphics/SVG/1.1/DTD/svg11.dtd">
<svg version="1.1" id="Layer_1" xmlns="http://www.w3.org/2000/svg" xmlns:xlink="http://www.w3.org/1999/xlink" x="0px" y="0px"
	 viewBox="0 0 100 63" enable-background="new 0 0 100 63" xml:space="preserve">
<g>
	<path fill="#3957A7" d="M100,59.2c0,1.8-1.5,3.3-3.3,3.3H3.3C1.5,62.5,0,61,0,59.2V3.3C0,1.5,1.5,0,3.3,0h93.3
		c1.8,0,3.3,1.5,3.3,3.3V59.2z"/>
	<g>
		<polygon fill="#FFFFFF" points="46,40.6 41.1,40.6 44.2,21.9 49.1,21.9 		"/>
		<path fill="#FFFFFF" d="M37,21.9l-4.7,12.9L31.8,32v0l-1.6-8.4c0,0-0.2-1.7-2.3-1.7h-7.7l-0.1,0.3c0,0,2.4,0.5,5.1,2.1l4.2,16.3
			h5.1l7.8-18.8H37z"/>
		<path fill="#FFFFFF" d="M75.4,40.6h4.5L76,21.9h-3.9c-1.8,0-2.3,1.4-2.3,1.4l-7.3,17.4h5.1l1-2.8h6.2L75.4,40.6z M70.1,34l2.6-7
			l1.4,7H70.1z"/>
		<path fill="#FFFFFF" d="M62.9,26.4l0.7-4c0,0-2.2-0.8-4.4-0.8c-2.4,0-8.2,1.1-8.2,6.2c0,4.8,6.8,4.9,6.8,7.5
			c0,2.5-6.1,2.1-8.1,0.5L49,39.9c0,0,2.2,1.1,5.5,1.1c3.3,0,8.4-1.7,8.4-6.4c0-4.9-6.8-5.3-6.8-7.5C56.1,25,60.8,25.2,62.9,26.4z"
			/>
	</g>
	<path fill="#F9A533" d="M31.8,32l-1.6-8.4c0,0-0.2-1.7-2.3-1.7h-7.7l-0.1,0.3c0,0,3.7,0.8,7.2,3.6C30.7,28.6,31.8,32,31.8,32z"/>
</g>
</svg>
