<?xml version="1.0" encoding="utf-8"?>
<!-- Generator: Adobe Illustrator 18.0.0, SVG Export Plug-In . SVG Version: 6.00 Build 0)  -->
<!DOCTYPE svg PUBLIC "-//W3C//DTD SVG 1.1//EN" "http://www.w3.org/Graphics/SVG/1.1/DTD/svg11.dtd">
<svg version="1.1" id="Layer_1" xmlns="http://www.w3.org/2000/svg" xmlns:xlink="http://www.w3.org/1999/xlink" x="0px" y="0px"
	 viewBox="0 0 44 44" enable-background="new 0 0 44 44" xml:space="preserve">
<g>
	<path fill="#1E7092" d="M39.3,0H4.7C2.1,0,0,2.1,0,4.7v34.6C0,41.9,2.1,44,4.7,44h34.6c2.6,0,4.7-2.1,4.7-4.7V4.7
		C44,2.1,41.9,0,39.3,0z M29.1,23.1H18.8l0,0.1c0.1,1.3,0.4,2.4,1.2,3.2c0.7,0.8,1.7,1.2,2.9,1.2c1,0,1.8-0.1,2.6-0.4
		c0.7-0.2,1.4-0.6,2.1-1.1l1.2,2.4c-0.6,0.6-1.4,1-2.5,1.4c-1,0.4-2.2,0.6-3.6,0.6c-2.3,0-4.2-0.8-5.6-2.3c-1.4-1.5-2.1-3.5-2.1-5.9
		v-0.6c0-2.4,0.7-4.4,2.1-6s3.1-2.4,5.2-2.4c2.2,0,3.9,0.7,5.1,2c1.2,1.3,1.8,3.2,1.8,5.4V23.1z"/>
	<path fill="#1E7092" d="M22.2,16.4c-0.9,0-1.7,0.4-2.3,1.1c-0.6,0.7-1,1.6-1.1,2.8l0,0.1h6.5V20c0-1-0.3-1.9-0.8-2.6
		C24.1,16.7,23.3,16.4,22.2,16.4z"/>
</g>
</svg>
