<?xml version="1.0" encoding="utf-8"?>
<!-- Generator: Adobe Illustrator 18.0.0, SVG Export Plug-In . SVG Version: 6.00 Build 0)  -->
<!DOCTYPE svg PUBLIC "-//W3C//DTD SVG 1.1//EN" "http://www.w3.org/Graphics/SVG/1.1/DTD/svg11.dtd">
<svg version="1.1" id="Layer_1" xmlns="http://www.w3.org/2000/svg" xmlns:xlink="http://www.w3.org/1999/xlink" x="0px" y="0px"
	 viewBox="0 0 44 44" enable-background="new 0 0 44 44" xml:space="preserve">
<path fill="#3B5998" d="M39.3,0H4.7C2.1,0,0,2.1,0,4.7v34.6C0,41.9,2.1,44,4.7,44h34.6c2.6,0,4.7-2.1,4.7-4.7V4.7
	C44,2.1,41.9,0,39.3,0z M28.1,14.6c0,0.3-0.2,0.5-0.5,0.5l-2,0c-1.4,0-1.6,0.5-1.6,1.6v2.2h3.5c0.1,0,0.2,0,0.3,0.1
	c0.1,0.1,0.1,0.2,0.1,0.3l0,3.7c0,0.3-0.2,0.5-0.5,0.5h-3.5v9.4c0,0.3-0.2,0.5-0.5,0.5h-3.9c-0.3,0-0.5-0.2-0.5-0.5v-9.4h-3
	c-0.3,0-0.5-0.2-0.5-0.5v-3.7c0-0.3,0.2-0.5,0.5-0.5h3v-2.6c0-3.4,2.1-5.6,5.4-5.6l2.9,0c0.3,0,0.5,0.2,0.5,0.5V14.6z"/>
</svg>
