<?xml version="1.0" encoding="utf-8"?>
<!-- Generator: Adobe Illustrator 18.0.0, SVG Export Plug-In . SVG Version: 6.00 Build 0)  -->
<!DOCTYPE svg PUBLIC "-//W3C//DTD SVG 1.1//EN" "http://www.w3.org/Graphics/SVG/1.1/DTD/svg11.dtd">
<svg version="1.1" id="Layer_1" xmlns="http://www.w3.org/2000/svg" xmlns:xlink="http://www.w3.org/1999/xlink" x="0px" y="0px"
	 viewBox="0 0 26 33" enable-background="new 0 0 26 33" xml:space="preserve">
<g>
	<g id="Shape_2_copy_2_">
		<g>
			<path fill="#1E7092" d="M25.9,10.8c0,0-0.1-0.1-0.1,0c-0.1,0.1-0.2,0.1-0.3,0.2c-0.1,0.1-0.3,0.2-0.4,0.3c0,0-0.1,0-0.2,0
				c0-0.1,0-0.1,0.1-0.1c0.2-0.3,0.3-0.6,0.3-1c0,0,0-0.1,0-0.1S25.2,10,25.2,10c0,0-0.1,0-0.1,0.1c0,0.1-0.1,0.1-0.1,0.2
				c0,0.2-0.1,0.4-0.3,0.6c-0.1,0.1-0.1,0.2-0.2,0.3c0,0.1-0.1,0.1-0.1,0.1c-0.1,0.1-0.2,0-0.2-0.1s0.1-0.2,0.1-0.3
				c0.2-0.3,0.3-0.6,0.2-1c0-0.1,0-0.1-0.1-0.2h0c0,0.1-0.1,0.2-0.1,0.3c-0.1,0.2-0.2,0.4-0.2,0.6c-0.1,0.4-0.5,0.7-0.8,1
				c-0.1,0.1-0.2,0.1-0.3,0.1c0-0.1,0-0.2,0-0.3c0-0.1,0.1-0.1,0.1-0.2c0.3-0.3,0.4-0.6,0.5-1c0-0.1,0.1-0.1,0.1-0.2
				c0-0.1,0-0.1-0.1-0.1c0,0-0.1,0-0.1,0.1c-0.1,0.1-0.1,0.1-0.1,0.2c-0.1,0.2-0.2,0.4-0.3,0.6c0,0-0.1,0.1-0.1,0.1
				c0-0.1-0.1-0.1,0-0.1c0-0.2,0-0.4-0.1-0.6c0,0-0.1-0.1-0.1-0.1c-0.1,0-0.1,0.1-0.1,0.1c0,0.1,0,0.2,0,0.3c0,0.4-0.1,0.9-0.3,1.3
				c-0.1,0.1-0.2,0.2-0.3,0.3c-0.1,0-0.2,0.1-0.3,0.1c-0.3,0-0.5,0.1-0.8,0.2c-0.1,0.1-0.2,0.1-0.3,0c-0.1-0.1-0.2,0-0.2,0.2
				c0,0,0,0,0,0c-0.1-0.1-0.2-0.2-0.4-0.1c0,0-0.1,0-0.1,0c0-0.1,0-0.1,0-0.2c0,0,0.1-0.1,0.1-0.1c0.2-0.2,0.4-0.3,0.7-0.5
				c0.2-0.1,0.3-0.3,0.4-0.4c0.2-0.2,0.3-0.4,0.4-0.6c0.1-0.2,0.2-0.4,0.2-0.7l0,0c0,0-0.1,0.1-0.1,0.1c-0.4,0.4-0.8,0.9-1.3,1.3
				c-0.2,0.2-0.4,0.3-0.7,0.5c-0.1,0-0.1,0.1-0.2,0.1c-0.2,0-0.3-0.1-0.3-0.3c0.1-0.3,0.2-0.5,0.3-0.6c0.2-0.2,0.3-0.4,0.3-0.6
				c0.1-0.1,0.1-0.3,0.2-0.4c0-0.1,0.1-0.2,0.1-0.3c0,0,0-0.1-0.1-0.1c0,0-0.1,0-0.1,0.1c0,0-0.1,0.1-0.1,0.1
				c-0.1,0.3-0.3,0.6-0.5,0.9c-0.2,0.2-0.3,0.4-0.4,0.7c-0.1,0.2-0.3,0.4-0.6,0.4c-0.1,0-0.1,0-0.1,0c-0.3,0-0.3-0.1-0.4-0.3
				c-0.1-0.4-0.1-0.8-0.1-1.2c0-0.2,0-0.4-0.1-0.6c0-0.1,0-0.1-0.1-0.2c0,0-0.1-0.1-0.1-0.1c0,0.1-0.1,0.1-0.1,0.1
				c0,0.2,0,0.3,0,0.5c0,0.1,0,0.3-0.1,0.4c-0.1,0.2-0.1,0.4,0,0.6c0,0.1,0,0.1,0.1,0.1c0,0.1,0,0.1,0,0.1c-0.1,0-0.1,0-0.1-0.1
				c-0.1-0.3-0.2-0.5-0.3-0.8c-0.1-0.2-0.2-0.4-0.3-0.5c0-0.1-0.1-0.1-0.2-0.1c-0.1,0-0.1,0.1,0,0.3c0.1,0.2,0.1,0.3,0.1,0.5
				c0,0.1,0.1,0.3,0.1,0.4c0,0.1,0.1,0.1,0.1,0.2c0,0,0.1,0.1,0.1,0.1c0,0.1,0.1,0.2,0,0.3c-0.1,0.1-0.2,0-0.2,0
				c-0.1-0.1-0.1-0.1-0.2-0.2c-0.3-0.3-0.5-0.7-0.8-1c-0.2-0.3-0.4-0.6-0.4-1c0,0,0-0.1,0-0.1c-0.1-0.1-0.1-0.1-0.2-0.1
				C15,8.8,15,8.8,15,8.9c0,0.4,0.1,0.9,0.3,1.2c0.1,0.2,0.3,0.4,0.5,0.6c0,0,0,0.1,0,0.1c0,0-0.1,0-0.1,0c-0.1-0.1-0.3-0.3-0.4-0.4
				c-0.2-0.2-0.4-0.4-0.6-0.6c-0.1-0.1-0.1-0.1-0.2,0c-0.1,0.1,0,0.1,0.1,0.2c0.2,0.2,0.4,0.3,0.5,0.5c0,0.1,0.1,0.1,0.2,0.2v0
				c-0.1,0-0.1,0-0.1,0c-0.1-0.1-0.3-0.1-0.3-0.3c-0.2-0.3-0.5-0.5-0.7-0.8C14,9.7,14,9.6,14,9.5c0-0.1,0-0.1-0.1-0.2
				c0,0-0.1-0.1-0.1,0c0,0-0.1,0.1-0.1,0.1c0.1,0.2,0.1,0.4,0.3,0.6c0.1,0.1,0.1,0.1,0.2,0.2c0.1,0.1,0.2,0.3,0.4,0.3c0,0,0,0,0,0.1
				c0,0-0.1,0-0.1,0c-0.3-0.1-0.5-0.2-0.8-0.3c-0.1,0-0.1-0.1-0.2,0c0,0.1,0,0.1,0.1,0.2c0,0,0.1,0.1,0.1,0.1
				c0.3,0.1,0.4,0.3,0.6,0.4c0,0,0,0.1,0,0.1c0,0-0.1,0-0.1,0c-0.2-0.1-0.4-0.2-0.5-0.3c-0.1,0-0.1-0.1-0.2-0.1
				c-0.1,0-0.2,0-0.2,0.1c0,0.1,0.1,0.1,0.1,0.1c0.2,0.1,0.4,0.1,0.5,0.2c0.1,0,0.1,0.1,0.1,0.1c0.1,0.1,0.2,0.2,0.3,0.2
				c0.2,0.1,0.3,0.1,0.4,0.3c0.1,0.1,0.2,0.2,0.4,0.2c0.4,0,0.8,0,1.3-0.1c0.4,0,0.7,0.1,1,0.2c0.1,0,0.2,0,0.2,0.1
				c-0.1,0.1-0.1,0.1-0.1,0.2s0,0.2,0,0.2c-0.6-0.1-1.2,0-1.8,0.1c-0.4,0.1-0.9,0.2-1.3,0.3c-0.3,0.1-0.6,0.2-0.8,0.3
				c0,0,0.1,0.1,0.1,0.1v0h-0.6c0,0,0,0,0,0.1c0.1,0,0.1,0.1,0.2,0.1c-0.1,0-0.1,0-0.1,0c-0.2,0-0.4,0.2-0.6,0.3
				c-0.2,0.2-0.4,0.4-0.6,0.6c-0.3,0.3-0.8,0.5-1.2,0.5c-0.9,0-1.8,0-2.7-0.1c-0.2,0-0.4-0.1-0.6-0.1c-0.5-0.1-1-0.1-1.4-0.1
				c-0.3,0-0.5,0.1-0.8,0.1c-0.1,0-0.3,0.1-0.4,0.2c-0.3,0.1-0.6,0.3-0.8,0.6c-0.2,0.2-0.4,0.4-0.5,0.6c-0.2,0.3-0.3,0.5-0.4,0.8
				C2.9,17.2,2.9,17.6,3,18c0.1,0.7,0.3,1.3,0.4,1.9c0.1,0.3,0.1,0.5,0.1,0.8c0,0.5,0.1,1,0.1,1.4c0,0.3-0.1,0.6-0.3,0.9
				C3.1,23.2,3,23.5,3,23.9c0,0.4,0,0.8,0,1.2c0,0.3,0.1,0.6,0.1,0.8c0.1,0.6,0.1,1.1,0,1.7c0,0.5,0,1.1,0,1.6
				c0,0.1,0.1,0.2,0.2,0.2c0.1,0,0.1,0.1,0.1,0.2c0,0.1,0,0.3,0,0.4c0,0.1,0,0.2,0.1,0.2c0.1,0,0.1,0.1,0.1,0.1
				c0.4,0.1,0.8,0.1,1.1-0.1c-0.1-0.2-0.1-0.3-0.2-0.5c-0.1-0.1-0.1-0.2-0.2-0.4c0-0.1-0.1-0.3-0.1-0.4c0-0.3-0.1-0.5-0.2-0.8
				c-0.1-0.5-0.2-0.9-0.2-1.4c0-0.2,0-0.4,0-0.5C3.9,26,4,25.9,4,25.7c0-0.1,0.1-0.2,0.1-0.3c0.1-0.3,0.2-0.5,0.3-0.8
				c0.1,0.3,0.1,0.5,0.1,0.7c0,0.1,0,0.1,0,0.1c0,0.2,0,0.3,0.1,0.5c0.1,0.4,0.1,0.7,0.2,1.1c0,0.2,0,0.3,0,0.5c0,0.5,0.1,1,0.1,1.5
				c0,0.2,0.1,0.3,0.3,0.4c0.1,0,0.2,0.1,0.2,0.2c0,0.2-0.1,0.3-0.1,0.5c0.1,0,0.2,0.1,0.3,0.1c0.1,0,0.1,0,0.2,0.1
				c0.3,0.2,0.6,0.1,0.8,0c0.1,0,0.1-0.1,0.2-0.1c0,0,0-0.1,0-0.1c-0.1-0.1-0.1-0.2-0.2-0.3c0,0-0.1-0.1-0.1-0.1
				c-0.1,0-0.1-0.1-0.2-0.1c0-0.2-0.1-0.3-0.1-0.5c-0.1-0.3-0.1-0.6-0.3-0.9C6.1,28.2,6,28,5.9,27.8c-0.1-0.4-0.2-0.8-0.2-1.2
				c-0.1-0.5,0-1,0.2-1.5C6,24.6,6.2,24,6.4,23.5C6.6,23,6.8,22.5,7.1,22c0.1-0.1,0.1-0.2,0.2-0.3c0.2-0.3,0.4-0.5,0.4-0.8
				c0.4,0.1,0.8,0.3,1.2,0.4c0.3,0.1,0.5,0.1,0.8,0.1c0.5,0,1.1-0.1,1.6-0.2c0.1,0,0.1,0,0.2,0c0,0,0.1,0,0.1,0
				c-0.1,0.1-0.2,0.3-0.3,0.4c0,0,0.1,0.1,0.1,0.1c-0.1,0.1-0.2,0.2-0.3,0.3c0.1,0,0.1,0,0.2,0.1c0,0.1-0.1,0.1-0.1,0.2
				c0,0.1-0.1,0.2,0.1,0.2c0.1,0,0.1,0.1,0.1,0.1c-0.1,0.1-0.1,0.3-0.2,0.4c-0.1,0.3-0.1,0.5-0.2,0.7c0,0.1,0,0.2,0.1,0.3l0,0
				c0,0.1,0,0.2-0.1,0.3c0,0.1-0.1,0.1,0,0.2c0,0.4-0.1,0.8-0.2,1.2c-0.1,0.5-0.4,1-0.6,1.5c-0.2,0.5-0.3,1-0.4,1.5
				c-0.1,0.2,0,0.4,0.2,0.5c0.1,0.1,0.1,0.1,0.1,0.2c-0.1,0.3,0,0.5,0.4,0.6c0.1,0,0.3,0.1,0.5,0.1c0.2,0,0.4-0.1,0.6-0.2
				c-0.1-0.2-0.1-0.3-0.2-0.5c0-0.1-0.1-0.1-0.2-0.1c0,0-0.1,0-0.1-0.1c0-0.1,0-0.1,0-0.2c0-0.1,0-0.2-0.1-0.3
				c-0.1-0.1-0.1-0.2-0.1-0.4c0.2-0.8,0.3-1.6,0.5-2.4l0,0l0,0c0,0,0-0.1,0-0.1c0.1-0.1,0.1-0.2,0.2-0.3c0.3-0.4,0.4-0.8,0.6-1.3
				c0-0.1,0-0.2,0-0.2c0-0.1,0-0.1,0-0.2c0,0,0,0,0-0.1c0-0.1,0-0.2,0.1-0.4c0.2-0.7,0.5-1.4,1-2c0,0.2,0,0.4-0.1,0.6
				c-0.1,0.5-0.1,1,0,1.5c0,0.1,0,0.2,0,0.3c0,0.2-0.1,0.4-0.1,0.6c0,0.3,0,0.5,0.1,0.7c0.1,0.5,0.1,1,0.1,1.5c0,0.7-0.1,1.3-0.1,2
				c0,0.1,0,0.1,0,0.2c0,0.3,0.1,0.4,0.3,0.5c0.1,0.1,0.1,0.1,0.1,0.2c0,0.1,0,0.1-0.1,0.1c-0.1,0.1,0,0.3,0.1,0.3c0,0,0.1,0,0.1,0
				c0.2,0.1,0.3,0.1,0.5,0.1c0.2,0,0.3,0,0.5,0c0.2,0,0.4-0.1,0.6-0.1c-0.1-0.3-0.3-0.5-0.5-0.7c-0.1-0.1-0.1-0.1-0.2-0.2
				c0-0.4-0.2-0.7-0.3-1c-0.1-0.2-0.1-0.4-0.1-0.7c0-0.1,0-0.2,0-0.3c0-0.2,0-0.4,0-0.5l0.1-1.1v0c0.1-0.2,0.1-0.3,0.1-0.5
				c0-0.1,0-0.2,0.1-0.3c0.1-0.3,0.1-0.5,0.1-0.8c0-0.1,0-0.3,0-0.4c0.1-0.3,0.2-0.7,0.4-1c0.3-0.5,0.5-1,0.6-1.6
				c0-0.1,0-0.1,0.1-0.1c0.4,0.1,0.6-0.2,0.9-0.4c0,0,0.1-0.1,0.1-0.1c0.1-0.2,0.3-0.4,0.5-0.5c0.1-0.1,0.2-0.2,0.2-0.4
				c-0.1-0.6,0.2-1,0.6-1.4c0.2-0.2,0.3-0.3,0.6-0.4c0.3-0.1,0.5-0.2,0.8-0.3c0,0,0.1,0,0.1,0c0.1,0.4,0,0.9,0,1.3
				c0.3,0.1,0.6,0,0.8-0.3c0.1-0.1,0.2-0.3,0.1-0.4c0-0.2,0.1-0.4,0.3-0.5c0.4-0.3,0.6-0.7,0.8-1.1c0.1-0.3,0.1-0.3,0.4-0.4
				c0,0,0.1,0,0.1,0c0.3-0.1,0.5,0.1,0.6,0.4c0.1,0.2,0.1,0.2,0.3,0.2c0.3,0,0.7,0,1-0.2c0.1-0.1,0.1-0.1,0.1-0.2
				c0.1-0.1,0.1-0.3,0.2-0.4c0.1-0.1,0.1-0.2-0.1-0.3c-0.1-0.1-0.1-0.1-0.1-0.2c0-0.2-0.1-0.4-0.1-0.7c0-0.2-0.2-0.4-0.4-0.5
				c-0.3-0.1-0.5-0.3-0.8-0.4c-0.1,0-0.1-0.1-0.1-0.2c0,0,0-0.1,0-0.1c0-0.3-0.1-0.4-0.3-0.5c0,0,0,0,0,0c-0.1-0.1-0.1-0.1-0.2-0.1
				c0,0,0,0,0,0c-0.1-0.1-0.1-0.1-0.2-0.1c0.4-0.2,0.7-0.4,1.1-0.4c0.4,0.1,0.8-0.1,1.2-0.2c0.2-0.1,0.4-0.1,0.6-0.2
				c0.4-0.1,0.8-0.3,1.1-0.5c0.1-0.1,0.2-0.2,0.3-0.3C25.9,10.9,26,10.8,25.9,10.8z"/>
		</g>
	</g>
	<g id="Shape_3_copy_2_2_">
		<g>
			<path fill="#1E7092" d="M10.6,5.1C10.5,5.1,10.5,5.1,10.6,5.1c-0.1,0-0.3,0.1-0.3,0.2c0,0.1-0.1,0.1-0.1,0.1c0-0.1,0-0.2,0.1-0.3
				c0.1-0.2,0.1-0.5,0-0.5h0c-0.1,0-0.1,0.1-0.2,0.3C9.9,5.1,9.8,5.3,9.8,5.3l0,0c0,0,0-0.1,0-0.2c0-0.2,0-0.4-0.1-0.4l0,0
				c-0.1,0-0.2,0.2-0.2,0.4c0,0.1-0.1,0.3-0.1,0.3c0,0-0.1-0.1-0.2-0.2C9,5.1,8.9,5,8.9,5S8.8,5.1,8.8,5.2c0,0.1,0,0.3-0.1,0.3
				c0,0,0,0,0,0c-0.1,0-0.2-0.1-0.3-0.2C8.3,5.1,8.2,5,8.2,5h0C8.1,5.1,8.1,5.2,8.1,5.3c0,0.1,0,0.2,0,0.2c0,0-0.1-0.1-0.2-0.1
				C7.8,5.3,7.6,5.2,7.4,5.2c0,0-0.1,0-0.1,0C7.2,5.3,7.2,5.3,7.1,5.4c0,0,0,0,0,0.1c0,0-0.1,0-0.1,0s-0.1,0-0.1,0
				c-0.1,0-0.1,0-0.1,0.1c0,0-0.1,0.1-0.1,0.1C6.6,5.7,6.6,5.8,6.5,5.8c0,0-0.1,0.1-0.2,0.2C6,6.3,5.4,7,5.1,7C5.1,7,5,6.9,5,6.9
				C4.9,6.8,4.8,6.7,4.8,6.5C4.4,5.9,4,5,3.6,4.8c-1.1-0.5-2-1.4-2.5-1.9C0.8,2.6,0.7,2.5,0.6,2.5c0,0,0,0,0,0c0,0,0,0.1,0,0.1
				c0.1,0.2,0.3,0.5,0.4,0.7c0.1,0.1,0.2,0.3,0.2,0.3C1.2,3.7,1.1,3.6,1,3.4C0.8,3.2,0.6,3.1,0.5,3.1h0c-0.1,0.1,0,0.2,0.2,0.4
				c0.1,0.1,0.2,0.2,0.2,0.3c-0.1,0-0.1-0.1-0.2-0.1C0.6,3.6,0.5,3.5,0.4,3.5c0,0,0,0-0.1,0s0,0,0,0.1c0,0.1,0,0.2,0.1,0.3
				C0.5,3.9,0.6,3.9,0.6,4l0,0c-0.1,0-0.1,0-0.2-0.1c-0.1,0-0.1-0.1-0.2-0.1c0,0,0,0-0.1,0c-0.1,0,0,0.1,0.1,0.3
				c0,0.1,0.1,0.1,0.1,0.1c0,0,0,0-0.1,0c-0.1,0-0.1,0-0.1,0c0,0,0,0,0,0.1c0,0.1,1.2,2.7,2.7,3.8C2.9,8.2,3,8.5,3,8.7
				c0,0.1,0.1,0.2,0.1,0.3c0,0,0,0.1,0,0.1C3.1,9.1,2.9,9.2,2.6,9.3c-0.1,0-0.3,0.1-0.4,0.1C0.3,9.6,0.3,9.7,0.3,9.8
				c0,0.1,0.1,0.1,0.1,0.2C0.5,10,0.5,10,0.5,10c0,0,0,0.1-0.1,0.1c-0.1,0.1-0.1,0.1-0.1,0.3c0,0.1,0.1,0.1,0.2,0.1
				c0.2,0,0.4-0.1,0.6-0.1c-0.4,0.3-0.4,0.3-0.4,0.3c0,0,0,0.1,0.3,0.1s0.6-0.1,1-0.2c0.1,0,0.2-0.1,0.3-0.1c0.1,0,0.1-0.1,0.2-0.1
				c0.8,0,2,0.1,2.8,0.1c0.4,0,0.8,0,0.9-0.1c0.1,0,0.3-0.1,0.5-0.2c0.3-0.1,0.7-0.3,1-0.3c0.1,0,0.1,0,0.1,0
				C8,10,8.1,10.3,8.1,10.3l0,0l0,0h0c0.1,0,0.2,0,0.3-0.3c0-0.1,0-0.3-0.1-0.3c0-0.1,0-0.5-0.3-0.7C7.8,8.9,7.6,8.8,7.5,8.8
				c-0.1,0-0.1-0.1-0.1-0.1c0-0.1,0.8-1.8,2-2.2c0.9-0.3,1.1-0.9,1.2-1.1C10.6,5.3,10.6,5.2,10.6,5.1z"/>
		</g>
	</g>
</g>
</svg>
