<?xml version="1.0" encoding="utf-8"?>
<!-- Generator: Adobe Illustrator 18.0.0, SVG Export Plug-In . SVG Version: 6.00 Build 0)  -->
<!DOCTYPE svg PUBLIC "-//W3C//DTD SVG 1.1//EN" "http://www.w3.org/Graphics/SVG/1.1/DTD/svg11.dtd">
<svg version="1.1" id="Layer_1" xmlns="http://www.w3.org/2000/svg" xmlns:xlink="http://www.w3.org/1999/xlink" x="0px" y="0px"
	 viewBox="0 0 194 44" enable-background="new 0 0 194 44" xml:space="preserve">
<g>
	<path fill="#FFFFFF" d="M34.9,32.5c0,0.1,0,2-0.1,5.7c0,2-0.1,3.4-0.1,4.3c0,0.9,0,1.3,0,1.2c-10.8-0.5-20.3-0.6-28.5-0.4H1.1
		c-0.7,0-1.1-0.2-1.1-0.5c0-0.2,0.1-0.4,0.3-0.4c0.2,0,0.8-0.1,1.9-0.2c1.9-0.1,3-0.7,3.1-1.7c0.1-0.5,0.1-1.1,0.1-1.8V7.6
		c0-2.5,0-3.8-0.1-4.1c0-0.7-0.2-1.1-0.6-1.4C4.4,1.9,3.6,1.8,2.5,1.8c-1.3,0-1.9-0.2-1.9-0.6c0-0.4,0.6-0.6,1.7-0.6
		c1.1,0,2.7,0,4.7-0.1c7.6-0.2,13.7-0.2,18.5-0.1h4.2c0.9,0,2-0.1,3.3-0.2L33.6,7c0.2,2.1,0.3,3.5,0.3,3.9c0,0.4-0.2,0.6-0.6,0.6
		c-0.4,0-0.7-0.5-0.8-1.6C32.1,7.1,31,5,29,3.7c-1.9-1.3-4.7-1.9-8.5-1.9c-1.2,0-3.1,0.1-5.9,0.2v18.2c4.5,0,7.4-0.3,8.6-1
		c1.2-0.7,2-2.4,2.4-5.3c0.2-1.5,0.5-2.3,0.9-2.3c0.4,0,0.6,0.4,0.6,1.1c0,0.7-0.1,2.3-0.2,4.6c0,0.8-0.1,1.8-0.1,3.1
		c0,3.5,0,6.2,0.1,8c0,0.2,0.1,0.6,0.1,0.9c0,0.5-0.2,0.7-0.6,0.7c-0.3,0-0.5-0.1-0.6-0.3c-0.1-0.2-0.2-0.9-0.4-2
		c-0.4-2.9-1-4.7-1.7-5.5c-0.7-0.7-2.4-1.1-5-1.1h-4.2V42h4c4.5-0.1,7.3-0.2,8.3-0.3c1.2-0.2,2.4-0.6,3.6-1.4c1-0.8,1.7-1.7,2.1-2.6
		c0.4-0.9,0.8-2.7,1.3-5.2c0.1-0.6,0.3-0.9,0.6-0.9C34.8,31.6,34.9,31.9,34.9,32.5z"/>
	<path fill="#FFFFFF" d="M84.4,42.8c0,0.4-0.4,0.6-1.2,0.6h-0.4c-0.9,0-2.5,0-4.8,0c-2.3,0-4,0-5.1,0c-0.5,0-1.4,0-2.8,0
		c-1.4,0-3.3,0-5.7,0h-1.5c-0.6,0-0.9-0.2-0.9-0.5c0-0.3,0.3-0.5,0.9-0.5h2.1c1.9,0,3-0.3,3.5-1c0.1-0.2,0.2-1.4,0.2-3.7V4.3
		c-1.3,3.4-3.1,8.8-5.2,16.3l-5.4,18.9c-0.7,2.3-1.2,3.5-1.6,3.5c-0.5,0-0.9-0.6-1.2-1.7c-0.1-0.4-1.4-4.3-3.9-11.8
		c-0.9-2.8-3.5-10.8-7.7-23.8v32c0,1.9,0,3,0.1,3.3c0,0.4,0.2,0.6,0.6,0.9c0.6,0.5,1.7,0.8,3.1,0.7c1.5,0,2.2,0.2,2.2,0.7
		c0,0.3-0.3,0.4-0.9,0.4L43,43.2c-0.9,0-2,0-3.3,0.1c-1.6,0.1-2.8,0.2-3.3,0.2c-0.9,0-1.3-0.2-1.3-0.6c0-0.3,0.3-0.5,1-0.5
		c1.6,0,2.6,0,3-0.1c1.3-0.2,2-0.6,2.2-1.4c0.1-0.5,0.2-1.5,0.2-3.1V8.4c0-3.3-0.2-5.2-0.6-5.8c-0.4-0.6-1.9-0.8-4.4-0.8
		c-0.7,0-1-0.2-1-0.6c0-0.4,0.3-0.6,1-0.6h1.7h11.6c0.1,0,0.3,0,0.7,0.1C54,12.1,57,21.5,59.5,29l8.3-28.4l1.3,0h8.1
		c0.1,0,0.5,0,1,0c0.6,0,1.2,0,1.7,0h2.8c0.8,0,1.2,0.2,1.2,0.5c0,0.4-0.2,0.6-0.7,0.5h-1.4c-1.7-0.1-2.9,0.1-3.5,0.5
		c-0.6,0.4-0.9,1.2-0.9,2.4c0,0.3,0,1,0,2.2s0,6.3,0,15.5v17.2c0,1.5,0.4,2.3,1.2,2.6c0.8,0.2,1.9,0.3,3.5,0.3
		C83.6,42.2,84.4,42.4,84.4,42.8z"/>
	<path fill="#FFFFFF" d="M117.9,32.8c0,0.8,0,1.4-0.1,2c-0.2,1.8-0.2,3.3-0.2,4.4l0.1,4.4c-5.3-0.2-14.8-0.3-28.5-0.3h-2.6
		c-1.8,0-2.7-0.2-2.7-0.5c0-0.3,0.3-0.5,0.9-0.5c2.1,0,3.4-0.3,3.9-0.9c0.4-0.3,0.6-1.3,0.6-3V5c0-1.4-0.1-2.3-0.4-2.6
		c-0.5-0.6-1.3-0.9-2.3-0.9H85c-0.5,0-0.7-0.2-0.7-0.5c0-0.3,0.3-0.5,0.9-0.5c0.3,0,0.7,0,1,0h15.7c0.2,0,0.4,0,0.7,0
		c0.4,0,0.6,0.2,0.6,0.5c0,0.4-0.5,0.6-1.6,0.6c-1.5,0-2.4,0.2-2.7,0.6c-0.3,0.4-0.4,2-0.4,4.9v14.7c0,3,0.1,9.7,0.2,20.2
		c0.8,0,1.7,0.1,2.6,0.1c4.3,0,7.3-0.2,8.9-0.5c2.6-0.5,4.4-1.8,5.3-3.9c0.5-1.1,0.9-2.8,1.4-5.1c0.1-0.7,0.3-1,0.6-1
		C117.8,31.5,117.9,31.9,117.9,32.8z"/>
	<path fill="#FFFFFF" d="M151.7,10.5c0,3.5-1.3,6.4-3.9,8.5c-2.6,2.2-6.1,3.2-10.5,3.2c-1.1,0-2.7-0.1-4.7-0.4v15.8
		c0,2.3,0.2,3.6,0.5,4c0.3,0.4,1.4,0.6,3.4,0.7c1.1,0,1.7,0.1,1.7,0.5c0,0.3-0.3,0.5-1,0.5h-0.9c-0.2,0-1.2,0-2.9,0
		c-1.7,0-3.5,0-5.3,0h-7.2c-1.4,0-2.1,0-2.3-0.1c-0.2-0.1-0.3-0.2-0.3-0.3c0-0.3,0.3-0.5,1-0.5c2,0,3.2-0.2,3.6-0.6
		c0.4-0.3,0.6-1.3,0.6-2.8V7.3c0-2.6-0.1-4.2-0.3-4.8c-0.2-0.5-1.3-0.8-3.1-0.8c-1.1,0-1.7-0.2-1.7-0.5c0-0.4,0.5-0.6,1.5-0.6
		l17.6-0.1c4.3,0,7.5,0.7,9.7,2C150.1,4.5,151.7,7.1,151.7,10.5z M141.7,10.8c0-6.1-1.9-9.1-5.7-9.1c-2.3,0-3.5,1-3.5,3v16.2
		c1.7,0,2.8-0.1,3.5-0.2c1.2-0.2,2.2-0.7,3.1-1.4C140.9,17.7,141.7,14.9,141.7,10.8z"/>
	<path fill="#FFFFFF" d="M193.6,22c0,6.2-1.9,11.4-5.8,15.6c-3.8,4.3-8.6,6.4-14.1,6.4c-5.5,0-10.1-2.2-14.1-6.5
		c-3.9-4.3-5.9-9.5-5.9-15.6c0-6.2,1.9-11.5,5.8-15.7c3.9-4.2,8.7-6.3,14.5-6.3c5.5,0,10.2,2.1,13.9,6.3
		C191.8,10.5,193.6,15.8,193.6,22z M182.8,23c0-8.2-1-14.2-2.9-18.1c-1.3-2.5-3.3-3.8-6-3.8c-2.8,0-5,1.8-6.7,5.4
		c-1.7,3.6-2.5,8.3-2.5,14.3c0,8.7,1.5,15.2,4.4,19.5c1.2,1.8,3,2.7,5.4,2.7c2.7,0,4.6-1.3,5.7-3.9C181.9,35.1,182.8,29.7,182.8,23z
		"/>
</g>
</svg>
