<?xml version="1.0" encoding="utf-8"?>
<!-- Generator: Adobe Illustrator 18.0.0, SVG Export Plug-In . SVG Version: 6.00 Build 0)  -->
<!DOCTYPE svg PUBLIC "-//W3C//DTD SVG 1.1//EN" "http://www.w3.org/Graphics/SVG/1.1/DTD/svg11.dtd">
<svg version="1.1" id="Layer_1" xmlns="http://www.w3.org/2000/svg" xmlns:xlink="http://www.w3.org/1999/xlink" x="0px" y="0px"
	 viewBox="0 0 93 100" enable-background="new 0 0 93 100" xml:space="preserve">
<g>
	<g id="Shape_2_copy_2_">
		<g>
			<path fill-rule="evenodd" clip-rule="evenodd" fill="#FFFFFF" d="M92.8,29.6c-0.1-0.1-0.4-0.2-0.5-0.1c-0.3,0.2-0.6,0.4-0.9,0.6
				c-0.5,0.3-0.9,0.7-1.4,1c-0.1,0.1-0.4,0.1-0.6,0.1c0.1-0.2,0.1-0.4,0.2-0.5c0.8-1,0.9-2.3,0.9-3.5c0-0.1,0-0.2-0.1-0.3
				c-0.1-0.1-0.2-0.3-0.3-0.3c-0.1,0-0.3,0.1-0.4,0.2c-0.1,0.2-0.2,0.4-0.2,0.6c-0.1,0.8-0.5,1.5-0.9,2.2c-0.2,0.4-0.5,0.8-0.7,1.1
				c-0.1,0.2-0.3,0.3-0.4,0.5c-0.4,0.3-0.8,0-0.8-0.4c0-0.4,0.2-0.7,0.4-1c0.8-1.1,0.9-2.2,0.7-3.5c-0.1-0.3-0.1-0.5-0.2-0.8l-0.1,0
				c-0.1,0.3-0.2,0.7-0.3,1c-0.3,0.7-0.6,1.4-0.8,2.2c-0.5,1.6-1.7,2.6-2.9,3.6c-0.2,0.2-0.6,0.2-0.9,0.3c0-0.3-0.1-0.6-0.1-0.9
				c0-0.2,0.2-0.5,0.3-0.6c0.9-1.1,1.5-2.3,1.8-3.6c0.1-0.3,0.2-0.5,0.2-0.8c0-0.2-0.1-0.4-0.2-0.5c-0.1-0.1-0.4,0-0.5,0.2
				c-0.2,0.2-0.3,0.5-0.4,0.7c-0.3,0.7-0.6,1.4-1,2.1c-0.1,0.1-0.3,0.2-0.4,0.3c-0.1-0.2-0.2-0.3-0.1-0.5c0.1-0.8-0.1-1.6-0.4-2.3
				c-0.1-0.1-0.3-0.3-0.4-0.3c-0.2,0.1-0.3,0.2-0.4,0.4c-0.1,0.3,0,0.6,0,0.9c0.1,1.6-0.5,3.1-1,4.5c-0.2,0.5-0.7,0.8-1.2,1
				c-0.3,0.1-0.7,0.2-1,0.2c-1,0.1-1.9,0.4-2.7,0.8c-0.3,0.2-0.7,0.3-1.1,0.1c-0.5-0.2-0.7,0.1-0.7,0.6c-0.1,0-0.1,0-0.1,0
				c-0.3-0.5-0.8-0.6-1.3-0.4c-0.1,0.1-0.5,0-0.5,0c0-0.2,0-0.5,0-0.7c0-0.1,0.2-0.2,0.3-0.3c0.8-0.6,1.6-1.1,2.4-1.7
				c0.6-0.5,1.2-1,1.6-1.6c0.6-0.7,1-1.5,1.5-2.3c0.5-0.7,0.6-1.6,0.7-2.4c0,0-0.1-0.1-0.1-0.1c-0.1,0.1-0.2,0.3-0.3,0.4
				c-1.5,1.6-3,3.2-4.6,4.7c-0.7,0.7-1.6,1.1-2.4,1.7c-0.2,0.1-0.4,0.2-0.6,0.2c-0.6,0.1-1-0.4-0.9-0.9c0.2-0.9,0.6-1.7,1.2-2.3
				c0.6-0.7,1-1.4,1.2-2.3c0.2-0.5,0.4-1,0.6-1.6c0.1-0.3,0.2-0.6,0.2-1c0-0.1-0.1-0.4-0.2-0.4c-0.1-0.1-0.3,0.1-0.4,0.2
				c-0.1,0.1-0.3,0.3-0.3,0.5c-0.5,1.2-1.1,2.2-1.9,3.2c-0.6,0.8-1.1,1.6-1.5,2.5c-0.4,0.8-1.2,1.4-2.1,1.3c-0.2,0-0.3,0-0.5,0
				c-0.9-0.1-1.2-0.3-1.4-1.2c-0.4-1.4-0.5-2.8-0.4-4.3c0-0.7-0.1-1.5-0.3-2.2c0-0.2-0.1-0.4-0.3-0.6c-0.1-0.1-0.3-0.2-0.5-0.3
				c-0.1,0.2-0.2,0.3-0.2,0.5c0,0.6,0.1,1.2,0.1,1.8c0,0.5-0.1,0.9-0.2,1.4c-0.2,0.7-0.2,1.5,0,2.2c0,0.2,0.1,0.3,0.2,0.5
				c0,0.2-0.1,0.3-0.1,0.5c-0.2-0.1-0.4-0.1-0.5-0.2c-0.4-0.9-0.7-1.9-1.1-2.8c-0.3-0.7-0.6-1.3-0.9-1.9c-0.1-0.3-0.4-0.5-0.8-0.3
				c-0.3,0.1-0.3,0.5-0.1,0.9c0.2,0.6,0.3,1.2,0.5,1.8c0.1,0.5,0.2,1.1,0.3,1.6c0.1,0.3,0.3,0.5,0.5,0.7c0.1,0.1,0.3,0.2,0.3,0.3
				c0.1,0.3,0.2,0.7,0,0.9c-0.2,0.3-0.6,0.1-0.8,0c-0.3-0.2-0.5-0.4-0.7-0.6c-0.9-1.2-1.8-2.4-2.7-3.7c-0.8-1.1-1.5-2.2-1.6-3.6
				c0-0.1,0-0.3-0.1-0.4c-0.2-0.2-0.4-0.3-0.7-0.4c-0.1,0.2-0.3,0.4-0.3,0.6c0,1.6,0.4,3.1,1.2,4.4c0.5,0.8,1.1,1.5,1.7,2.3
				c0.1,0.1,0.1,0.3,0.1,0.4c-0.1,0-0.3,0-0.4-0.1c-0.5-0.5-1-0.9-1.4-1.4c-0.7-0.7-1.4-1.3-2.1-2c-0.2-0.2-0.5-0.2-0.7,0
				c-0.2,0.3,0,0.4,0.2,0.6c0.7,0.6,1.3,1.1,1.7,1.9c0.1,0.3,0.5,0.4,0.8,0.7c0,0,0,0.1,0,0.1c-0.2,0-0.3,0-0.5-0.1
				c-0.4-0.3-0.9-0.5-1.1-0.9c-0.7-1.1-1.7-1.9-2.6-2.8c-0.2-0.2-0.4-0.6-0.5-0.9c-0.1-0.2-0.1-0.4-0.2-0.6
				c-0.1-0.1-0.3-0.2-0.4-0.1c-0.1,0.1-0.3,0.3-0.2,0.4c0.3,0.8,0.3,1.6,0.9,2.2c0.3,0.2,0.5,0.5,0.7,0.8c0.3,0.5,0.7,1,1.4,1.1
				c0,0.1,0,0.1-0.1,0.2c-0.1,0-0.3,0-0.4,0c-0.9-0.3-1.8-0.7-2.7-1c-0.2-0.1-0.5-0.3-0.6,0c-0.1,0.2,0.1,0.5,0.3,0.7
				c0.1,0.1,0.2,0.2,0.4,0.2c0.9,0.3,1.5,1,2.3,1.6c0.1,0.1,0.1,0.2,0.1,0.3c-0.1,0-0.3,0.1-0.4,0c-0.7-0.3-1.3-0.7-1.9-1.1
				c-0.2-0.1-0.4-0.2-0.7-0.3c-0.3-0.1-0.6,0-0.6,0.4c-0.1,0.4,0.2,0.3,0.5,0.4c0.6,0.2,1.3,0.5,1.9,0.7c0.2,0.1,0.3,0.2,0.4,0.4
				c0.3,0.5,0.7,0.7,1.2,0.8c0.6,0.2,1.2,0.5,1.5,1.1c0.3,0.5,0.7,0.7,1.3,0.7c1.5-0.1,3-0.1,4.5-0.2c1.3-0.1,2.5,0.4,3.7,0.6
				c0.3,0.1,0.6,0.1,0.8,0.2c-0.2,0.2-0.4,0.4-0.5,0.7c-0.1,0.3,0.1,0.6,0.1,0.8c-2.2-0.4-4.4,0-6.6,0.3c-1.6,0.2-3.1,0.7-4.7,1.1
				c-1,0.3-2,0.6-3,0.9c0.1,0.1,0.2,0.2,0.3,0.3c0,0,0,0.1,0,0.1h-2.2c0,0.1,0,0.1,0,0.2c0.2,0.1,0.4,0.2,0.6,0.3
				c-0.2,0.1-0.3,0.1-0.4,0.1c-0.8,0.1-1.4,0.6-2,1.1c-0.7,0.7-1.4,1.3-2,2c-1.2,1.2-2.7,1.8-4.4,1.8c-3.2,0-6.4,0-9.6-0.4
				c-0.8-0.1-1.6-0.3-2.3-0.4C25,43,23.4,43,21.8,43.1c-1,0.1-1.9,0.2-2.9,0.4c-0.5,0.1-1,0.4-1.5,0.6c-1.1,0.5-2.1,1.2-2.9,2.1
				c-0.6,0.7-1.4,1.3-1.9,2.1c-0.6,0.9-1.1,1.9-1.6,2.9c-0.6,1.3-0.5,2.6-0.4,4c0.2,2.4,1,4.6,1.5,6.9c0.2,0.9,0.2,1.8,0.3,2.7
				c0.1,1.7,0.2,3.4,0.3,5.1c0.1,1.2-0.3,2.3-1,3.2c-0.7,1-1,2.1-1,3.3c0,1.4,0,2.8,0,4.2c0,1,0.2,2,0.3,3c0.2,2,0.3,4.1,0.1,6.1
				c-0.1,1.9,0,3.8,0.1,5.6c0,0.4,0.2,0.6,0.6,0.7c0.4,0,0.5,0.3,0.4,0.6c0,0.5-0.1,0.9-0.1,1.4c0,0.4,0.1,0.6,0.5,0.8
				c0.2,0.1,0.3,0.2,0.5,0.3c1.4,0.3,2.8,0.4,4.1-0.3c-0.2-0.6-0.3-1.2-0.8-1.7c-0.3-0.3-0.5-0.8-0.6-1.3c-0.1-0.5-0.2-1.1-0.2-1.6
				c-0.1-1-0.3-1.9-0.8-2.7c-0.3-1.7-0.6-3.3-0.7-5c-0.1-0.6-0.1-1.3-0.1-1.9c0.1-0.6,0.2-1.1,0.3-1.7c0.1-0.3,0.3-0.6,0.4-0.9
				c0.4-0.9,0.8-1.7,1.2-2.7c0.2,0.9,0.4,1.8,0.5,2.6c0,0.2,0.1,0.4,0.1,0.5c0,0.6,0.1,1.2,0.3,1.8c0.2,1.3,0.4,2.5,0.6,3.8
				c0.1,0.6,0,1.2,0.1,1.9c0.1,1.8,0.2,3.6,0.4,5.4c0.1,0.8,0.3,1.2,1.2,1.3c0.5,0,0.7,0.2,0.6,0.8c-0.1,0.6-0.2,1.2-0.3,1.8
				c0.3,0.1,0.7,0.2,1,0.3c0.2,0.1,0.5,0.1,0.7,0.3c1,0.6,2,0.3,3,0.1c0.2-0.1,0.4-0.3,0.6-0.4c0.1-0.1,0.1-0.2,0.1-0.3
				c-0.2-0.4-0.4-0.8-0.6-1.2c-0.1-0.1-0.3-0.3-0.4-0.3c-0.4,0-0.5-0.2-0.6-0.5c-0.1-0.6-0.2-1.1-0.3-1.7c-0.3-1.1-0.5-2.1-0.9-3.1
				c-0.2-0.7-0.6-1.3-0.8-2c-0.3-1.4-0.7-2.8-0.8-4.3c-0.2-1.8,0.1-3.5,0.6-5.2c0.6-1.9,1.1-3.9,1.8-5.8c0.7-1.9,1.7-3.8,2.6-5.6
				c0.2-0.3,0.4-0.6,0.7-0.9c0.7-0.9,1.5-1.7,1.4-2.9c1.5,0.5,2.8,1,4.2,1.4c0.9,0.2,1.9,0.4,2.8,0.4c1.9,0,3.8-0.4,5.7-0.7
				c0.2,0,0.4-0.1,0.7-0.1c0.1,0,0.2,0,0.4,0c-0.4,0.5-0.7,0.9-1.1,1.4c0.1,0.1,0.3,0.2,0.4,0.3c-0.3,0.4-0.6,0.7-1,1.1
				c0.3,0.1,0.5,0.1,0.7,0.2c-0.1,0.3-0.3,0.5-0.4,0.7c-0.1,0.3-0.2,0.6,0.3,0.6c0.3,0,0.2,0.3,0.2,0.4c-0.2,0.5-0.4,1-0.6,1.6
				c-0.3,0.9-0.5,1.7-0.8,2.6c-0.1,0.4-0.1,0.7,0.2,1c0,0,0.1,0.1,0.1,0.1c-0.1,0.4-0.1,0.8-0.2,1.2c-0.1,0.2-0.2,0.5-0.1,0.7
				c0.1,1.6-0.3,3-0.7,4.4c-0.5,1.9-1.3,3.6-2,5.4c-0.7,1.7-1,3.4-1.4,5.2c-0.2,0.7,0.1,1.4,0.6,1.9c0.2,0.2,0.3,0.5,0.2,0.8
				c-0.2,1.2,0.1,1.8,1.3,2.1c0.5,0.1,1.1,0.3,1.7,0.2c0.8-0.1,1.5-0.4,2.3-0.6c-0.2-0.6-0.4-1.2-0.6-1.7c-0.1-0.3-0.3-0.5-0.6-0.4
				c-0.1,0-0.2-0.1-0.2-0.2c-0.1-0.2-0.1-0.4-0.1-0.6c-0.1-0.3-0.1-0.6-0.2-0.9c-0.2-0.4-0.3-0.8-0.2-1.3c0.6-2.9,1.2-5.8,1.9-8.6
				c0,0,0,0,0,0c0,0,0,0,0,0c0-0.1,0.1-0.3,0.1-0.4c0.2-0.4,0.4-0.7,0.6-1c1-1.4,1.6-3,2.3-4.5c0.1-0.2,0.1-0.6,0-0.8
				c0-0.2,0-0.4,0-0.6c0-0.1,0-0.1,0-0.2c0-0.4,0.1-0.8,0.2-1.3c0.8-2.5,1.8-4.9,3.7-7c-0.1,0.7-0.1,1.3-0.2,2
				c-0.3,1.8-0.2,3.6-0.1,5.4c0,0.3-0.1,0.6-0.1,0.9c-0.1,0.7-0.2,1.4-0.3,2c-0.1,0.9,0.1,1.7,0.3,2.5c0.5,1.7,0.5,3.4,0.4,5.2
				c-0.1,2.4-0.2,4.7-0.4,7.1c0,0.3,0,0.5,0,0.8c0,0.9,0.5,1.4,1.2,1.8c0.4,0.2,0.4,0.4,0.3,0.7c-0.1,0.2-0.1,0.3-0.2,0.5
				c-0.2,0.5,0,0.9,0.4,1.2c0.1,0,0.2,0.1,0.2,0.1C50,99,50.6,99,51.1,99c0.6,0,1.1,0.1,1.7,0.1c0.7,0,1.4-0.2,2.1-0.3
				c-0.2-1.1-0.9-1.9-1.9-2.5c-0.3-0.2-0.5-0.3-0.6-0.7c-0.1-1.3-0.6-2.5-1.1-3.7c-0.3-0.8-0.4-1.6-0.2-2.5c0.1-0.4,0.1-0.8,0.1-1.2
				c0-0.6-0.1-1.3-0.1-1.9l0.2-3.9c0,0,0-0.1,0-0.1c0.3-0.6,0.4-1.2,0.5-1.9c0.1-0.3,0.1-0.7,0.2-1c0.3-0.9,0.2-1.9,0.2-2.9
				c0-0.5,0-1,0.1-1.5c0.2-1.2,0.7-2.4,1.3-3.5c0.9-1.8,1.8-3.6,2.2-5.6c0-0.2,0.1-0.4,0.4-0.4c1.4,0.3,2.3-0.6,3.2-1.6
				c0.1-0.1,0.2-0.3,0.3-0.5c0.4-0.7,1-1.4,1.7-1.8c0.5-0.3,0.8-0.8,0.7-1.4c-0.2-2.1,0.8-3.7,2.1-5.1c0.6-0.6,1.2-1,2-1.3
				c0.9-0.4,1.9-0.8,2.8-1.2c0.1-0.1,0.3-0.1,0.4-0.1c0.3,1.6-0.1,3.2,0,4.8c1.1,0.3,2.1-0.1,2.8-1c0.4-0.5,0.6-1,0.5-1.6
				c0-0.7,0.3-1.3,0.9-1.7c1.5-1,2.3-2.4,2.7-4.1c0.3-0.9,0.5-1.2,1.5-1.3c0.1,0,0.2,0,0.3,0c1.1-0.2,1.9,0.4,2.2,1.5
				c0.2,0.7,0.2,0.8,0.9,0.8c1.2,0.1,2.4,0,3.4-0.8c0.2-0.2,0.3-0.4,0.4-0.6c0.2-0.5,0.4-1,0.7-1.5c0.3-0.5,0.2-0.6-0.2-1
				c-0.2-0.2-0.4-0.5-0.4-0.8c0-0.8-0.2-1.6-0.4-2.4C84.6,42,84,41.4,83.2,41c-0.9-0.5-1.9-1-2.8-1.5c-0.3-0.1-0.4-0.3-0.3-0.6
				c0-0.1,0-0.3,0-0.4c0.1-0.9-0.4-1.3-1.1-1.8c0,0-0.1,0-0.1-0.1c-0.2-0.2-0.4-0.3-0.6-0.4c0,0,0,0-0.1,0c-0.2-0.2-0.5-0.3-0.8-0.5
				c1.3-0.6,2.4-1.5,3.8-1.3c1.5,0.2,2.8-0.2,4.2-0.7c0.7-0.3,1.5-0.5,2.2-0.7c1.5-0.4,2.8-1,4.1-1.9c0.4-0.3,0.7-0.6,1.1-1
				C92.8,30,92.9,29.7,92.8,29.6z"/>
		</g>
	</g>
	<g id="Shape_3_copy_2_2_">
		<g>
			<path fill-rule="evenodd" clip-rule="evenodd" fill="#FFFFFF" d="M37.8,9.4c-0.1-0.1-0.2-0.1-0.2-0.1c-0.3,0-0.7,0.5-1,0.9
				c-0.1,0.2-0.3,0.4-0.3,0.4c0-0.2,0.1-0.6,0.2-0.9c0.2-0.8,0.5-1.7,0.1-1.9c0,0-0.1,0-0.1,0c-0.3,0-0.5,0.4-0.8,1.1
				c-0.2,0.5-0.5,1.2-0.8,1.2c0,0,0,0,0,0c0-0.1,0-0.4,0-0.7c0-0.7,0-1.5-0.4-1.5c0,0,0,0,0,0c-0.4,0-0.6,0.7-0.8,1.5
				c-0.1,0.4-0.3,0.9-0.4,1c-0.1,0-0.4-0.4-0.6-0.7c-0.4-0.5-0.7-1-1-1c-0.3,0-0.3,0.5-0.3,1c0,0.4,0,0.9-0.2,1c0,0,0,0-0.1,0
				c-0.2,0-0.6-0.4-0.9-0.7C29.7,9.2,29.4,9,29.2,9c0,0-0.1,0-0.1,0c-0.2,0.2-0.2,0.6-0.2,1.1c0,0.3,0,0.6,0,0.7
				c-0.1,0-0.4-0.2-0.6-0.4c-0.5-0.4-1.2-0.8-1.8-0.8c-0.1,0-0.2,0-0.2,0c-0.6,0.2-0.7,0.5-0.8,0.7c0,0.1-0.1,0.1-0.1,0.2
				c-0.1,0-0.2,0-0.3,0c-0.1,0-0.2,0-0.3,0c-0.2,0-0.4,0.1-0.5,0.2c-0.1,0.1-0.3,0.3-0.4,0.5c-0.2,0.2-0.3,0.5-0.5,0.5
				c-0.1,0-0.3,0.2-0.7,0.7c-1.1,1.1-3.3,3.5-4.4,3.5c-0.2,0-0.4-0.1-0.5-0.3c-0.2-0.3-0.5-0.8-0.8-1.5c-1.1-2.1-2.8-5.3-4.3-6.1
				C8.9,6.2,5.6,3,3.8,1.3C2.8,0.3,2.5,0,2.3,0C2.3,0,2.2,0,2.2,0.1c-0.1,0.1,0,0.2,0.1,0.4c0.3,0.7,1,1.8,1.6,2.6
				c0.3,0.5,0.7,1,0.8,1.2C4.4,4.2,3.9,3.7,3.4,3.2C2.7,2.4,2.2,2,1.9,2C1.9,2,1.8,2,1.8,2C1.5,2.2,1.9,2.7,2.5,3.5
				c0.2,0.3,0.6,0.8,0.7,1C3,4.5,2.7,4.3,2.5,4.1C2.1,3.7,1.7,3.4,1.4,3.4c-0.1,0-0.1,0-0.2,0c-0.1,0-0.1,0.1-0.1,0.2
				C1,3.8,1.2,4.2,1.6,4.6C1.8,4.8,2,5.1,2,5.2c0,0,0,0,0,0C1.8,5.2,1.6,5.1,1.3,5C1.1,4.9,0.8,4.7,0.6,4.7c-0.1,0-0.1,0-0.2,0
				c-0.2,0.1,0,0.5,0.2,1C0.7,5.9,0.8,6,0.8,6.1c-0.1,0-0.1,0-0.2,0c-0.2,0-0.4,0-0.5,0.1C0,6.3,0,6.3,0,6.4c0,0.3,4.4,9.8,9.7,13.5
				c0.7,0.5,1,1.4,1.2,2.2c0.1,0.3,0.2,0.6,0.3,0.9c0,0.1,0,0.2,0,0.3c-0.2,0.3-1,0.5-1.9,0.8c-0.5,0.1-1.1,0.3-1.6,0.5
				c-6.5,0.8-6.5,1.2-6.5,1.3c0,0.4,0.2,0.5,0.4,0.6c0.2,0.1,0.2,0.2,0.2,0.2c0,0.1-0.1,0.2-0.2,0.3c-0.2,0.2-0.5,0.5-0.3,1
				c0.1,0.2,0.3,0.2,0.6,0.2c0.6,0,1.5-0.2,2.2-0.4c-1.6,0.9-1.6,1.1-1.6,1.1c0,0.1,0,0.2,0.9,0.2c0.9,0,2.3-0.2,3.4-0.6
				c0.3-0.1,0.6-0.3,0.9-0.4c0.3-0.1,0.5-0.2,0.7-0.3c2.8,0.1,7,0.3,9.9,0.3c1.6,0,2.7-0.1,3.1-0.2c0.5-0.1,1.1-0.4,1.8-0.6
				c1.2-0.5,2.4-0.9,3.4-0.9c0.2,0,0.4,0,0.5,0.1c1.4,0.4,1.9,1.5,1.9,1.5l0,0l0,0c0,0,0.1,0,0.1,0c0.2,0,0.7-0.1,0.9-1
				c0.1-0.5-0.1-0.9-0.2-1c0-0.3,0.1-1.7-1.1-2.6c-0.7-0.6-1.4-0.8-1.9-1c-0.2-0.1-0.5-0.2-0.5-0.3c0-0.3,3-6.4,7.2-7.7
				c3.3-1,4.1-3.1,4.2-3.9C38,10,38,9.5,37.8,9.4z"/>
		</g>
	</g>
</g>
</svg>
