<?xml version="1.0" encoding="utf-8"?>
<!-- Generator: Adobe Illustrator 18.0.0, SVG Export Plug-In . SVG Version: 6.00 Build 0)  -->
<!DOCTYPE svg PUBLIC "-//W3C//DTD SVG 1.1//EN" "http://www.w3.org/Graphics/SVG/1.1/DTD/svg11.dtd">
<svg version="1.1" id="Layer_1" xmlns="http://www.w3.org/2000/svg" xmlns:xlink="http://www.w3.org/1999/xlink" x="0px" y="0px"
	 viewBox="0 0 69 44" enable-background="new 0 0 69 44" xml:space="preserve">
<g>
	<path fill="#1E7092" d="M2.3,4.1c1.9,1,27.5,14.8,28.4,15.3c1,0.5,2.2,0.8,3.4,0.8s2.5-0.2,3.4-0.8c1-0.5,26.6-14.3,28.4-15.3
		c1.9-1,3.6-4.1,0.2-4.1H2.1C-1.4,0,0.4,3.1,2.3,4.1z M66.8,11.7C64.7,12.8,38.9,26.3,37.6,27c-1.3,0.7-2.2,0.8-3.4,0.8
		S32,27.7,30.7,27C29.4,26.3,3.6,12.8,1.5,11.7C0,10.9,0,11.8,0,12.5c0,0.7,0,27.8,0,27.8C0,42,2.1,44,3.8,44h60.8
		c1.6,0,3.8-2,3.8-3.6c0,0,0-27.1,0-27.8C68.3,11.8,68.3,10.9,66.8,11.7z"/>
</g>
</svg>
