<?xml version="1.0" encoding="utf-8"?>
<!-- Generator: Adobe Illustrator 18.0.0, SVG Export Plug-In . SVG Version: 6.00 Build 0)  -->
<!DOCTYPE svg PUBLIC "-//W3C//DTD SVG 1.1//EN" "http://www.w3.org/Graphics/SVG/1.1/DTD/svg11.dtd">
<svg version="1.1" id="Layer_1" xmlns="http://www.w3.org/2000/svg" xmlns:xlink="http://www.w3.org/1999/xlink" x="0px" y="0px"
	 viewBox="0 0 44 44" enable-background="new 0 0 44 44" xml:space="preserve">
<g>
	<path fill="#B2B2B2" d="M22,0C9.9,0,0,9.9,0,22s9.9,22,22,22s22-9.9,22-22S34.1,0,22,0z M22,42.4C10.7,42.4,1.6,33.3,1.6,22
		S10.7,1.6,22,1.6S42.4,10.7,42.4,22S33.3,42.4,22,42.4z"/>
	<path fill="#B2B2B2" d="M11.8,13.4h20.4c0.4,0,0.8-0.4,0.8-0.8s-0.4-0.8-0.8-0.8H11.8c-0.4,0-0.8,0.4-0.8,0.8S11.4,13.4,11.8,13.4z
		"/>
	<path fill="#B2B2B2" d="M35.4,24.4H8.6c-0.4,0-0.8,0.4-0.8,0.8c0,0.4,0.4,0.8,0.8,0.8h26.7c0.4,0,0.8-0.4,0.8-0.8
		S35.8,24.4,35.4,24.4z"/>
	<path fill="#B2B2B2" d="M35.4,18.1H8.6c-0.4,0-0.8,0.4-0.8,0.8c0,0.4,0.4,0.8,0.8,0.8h26.7c0.4,0,0.8-0.4,0.8-0.8
		C36.1,18.4,35.8,18.1,35.4,18.1z"/>
	<path fill="#B2B2B2" d="M32.2,30.6H11.8c-0.4,0-0.8,0.4-0.8,0.8c0,0.4,0.4,0.8,0.8,0.8h20.4c0.4,0,0.8-0.4,0.8-0.8
		C33,31,32.6,30.6,32.2,30.6z"/>
</g>
</svg>
