<?xml version="1.0" encoding="utf-8"?>
<!-- Generator: Adobe Illustrator 18.0.0, SVG Export Plug-In . SVG Version: 6.00 Build 0)  -->
<!DOCTYPE svg PUBLIC "-//W3C//DTD SVG 1.1//EN" "http://www.w3.org/Graphics/SVG/1.1/DTD/svg11.dtd">
<svg version="1.1" id="Layer_1" xmlns="http://www.w3.org/2000/svg" xmlns:xlink="http://www.w3.org/1999/xlink" x="0px" y="0px"
	 viewBox="0 0 95 44" enable-background="new 0 0 95 44" xml:space="preserve">
<g>
	<g>
		<g>
			<path fill="#FFFFFF" d="M91,37.8c-3.3,0-6.5-1.4-8.7-4c-0.6-0.7-1.4-1.1-2.3-1.1c-0.9,0-1.7,0.4-2.3,1.1c-2.2,2.5-5.3,4-8.7,4
				s-6.5-1.4-8.7-4c-0.6-0.7-1.4-1.1-2.3-1.1c-0.9,0-1.7,0.4-2.3,1.1c-2.2,2.5-5.3,4-8.7,4s-6.5-1.4-8.7-4c-0.6-0.7-1.4-1.1-2.3-1.1
				c-0.9,0-1.7,0.4-2.3,1.1c-2.2,2.5-5.3,4-8.7,4s-6.5-1.4-8.7-4c-0.6-0.7-1.4-1.1-2.3-1.1c-0.9,0-1.7,0.4-2.3,1.1
				c-2.2,2.5-5.3,4-8.7,4c-1.7,0-3.1,1.4-3.1,3.1C0,42.6,1.4,44,3.1,44c3.6,0,7-1.1,9.9-3.1c0.4-0.2,0.7-0.5,1.1-0.8
				c0.3,0.3,0.7,0.5,1.1,0.8c2.9,2,6.4,3.1,9.9,3.1s7-1.1,9.9-3.1c0.4-0.2,0.7-0.5,1.1-0.8c0.3,0.3,0.7,0.5,1.1,0.8
				c2.9,2,6.4,3.1,9.9,3.1s7-1.1,9.9-3.1c0.4-0.2,0.7-0.5,1.1-0.8c0.3,0.3,0.7,0.5,1.1,0.8c2.9,2,6.4,3.1,9.9,3.1
				c3.6,0,7-1.1,9.9-3.1c0.4-0.2,0.7-0.5,1.1-0.8c0.3,0.3,0.7,0.5,1.1,0.8c2.9,2,6.4,3.1,9.9,3.1c1.7,0,3.1-1.4,3.1-3.1
				C94.1,39.2,92.7,37.8,91,37.8z"/>
			<path fill="#FFFFFF" d="M91,21.4c-3.3,0-6.5-1.4-8.7-4c-0.6-0.7-1.4-1.1-2.3-1.1c-0.9,0-1.7,0.4-2.3,1.1c-2.2,2.5-5.3,4-8.7,4
				s-6.5-1.4-8.7-4c-0.6-0.7-1.4-1.1-2.3-1.1c-0.9,0-1.7,0.4-2.3,1.1c-2.2,2.5-5.3,4-8.7,4s-6.5-1.4-8.7-4c-0.6-0.7-1.4-1.1-2.3-1.1
				c-0.9,0-1.7,0.4-2.3,1.1c-2.2,2.5-5.3,4-8.7,4s-6.5-1.4-8.7-4c-0.6-0.7-1.4-1.1-2.3-1.1c-0.9,0-1.7,0.4-2.3,1.1
				c-2.2,2.5-5.3,4-8.7,4c-1.7,0-3.1,1.4-3.1,3.1c0,1.7,1.4,3.1,3.1,3.1c3.6,0,7-1.1,9.9-3.1c0.4-0.2,0.7-0.5,1.1-0.8
				c0.3,0.3,0.7,0.5,1.1,0.8c2.9,2,6.4,3.1,9.9,3.1s7-1.1,9.9-3.1c0.4-0.2,0.7-0.5,1.1-0.8c0.3,0.3,0.7,0.5,1.1,0.8
				c2.9,2,6.4,3.1,9.9,3.1s7-1.1,9.9-3.1c0.4-0.2,0.7-0.5,1.1-0.8c0.3,0.3,0.7,0.5,1.1,0.8c2.9,2,6.4,3.1,9.9,3.1
				c3.6,0,7-1.1,9.9-3.1c0.4-0.2,0.7-0.5,1.1-0.8c0.3,0.3,0.7,0.5,1.1,0.8c2.9,2,6.4,3.1,9.9,3.1c1.7,0,3.1-1.4,3.1-3.1
				C94.1,22.8,92.7,21.4,91,21.4z"/>
			<path fill="#FFFFFF" d="M3.1,11.2c3.6,0,7-1.1,9.9-3.1c0.4-0.2,0.7-0.5,1.1-0.8c0.3,0.3,0.7,0.5,1.1,0.8c2.9,2,6.4,3.1,9.9,3.1
				s7-1.1,9.9-3.1c0.4-0.2,0.7-0.5,1.1-0.8c0.3,0.3,0.7,0.5,1.1,0.8c2.9,2,6.4,3.1,9.9,3.1s7-1.1,9.9-3.1c0.4-0.2,0.7-0.5,1.1-0.8
				c0.3,0.3,0.7,0.5,1.1,0.8c2.9,2,6.4,3.1,9.9,3.1c3.6,0,7-1.1,9.9-3.1c0.4-0.2,0.7-0.5,1.1-0.8c0.3,0.3,0.7,0.5,1.1,0.8
				c2.9,2,6.4,3.1,9.9,3.1c1.7,0,3.1-1.4,3.1-3.1S92.7,5,91,5c-3.3,0-6.5-1.4-8.7-4C81.8,0.4,80.9,0,80,0c-0.9,0-1.7,0.4-2.3,1.1
				c-2.2,2.5-5.3,4-8.7,4c-3.3,0-6.5-1.4-8.7-4C59.8,0.4,58.9,0,58.1,0s-1.7,0.4-2.3,1.1c-2.2,2.5-5.3,4-8.7,4c-3.3,0-6.5-1.4-8.7-4
				C37.8,0.4,37,0,36.1,0c-0.9,0-1.7,0.4-2.3,1.1c-2.2,2.5-5.3,4-8.7,4s-6.5-1.4-8.7-4C15.8,0.4,15,0,14.1,0c-0.9,0-1.7,0.4-2.3,1.1
				C9.6,3.6,6.4,5,3.1,5C1.4,5,0,6.4,0,8.1S1.4,11.2,3.1,11.2z"/>
		</g>
	</g>
</g>
</svg>
