<?xml version="1.0" encoding="utf-8"?>
<!-- Generator: Adobe Illustrator 18.0.0, SVG Export Plug-In . SVG Version: 6.00 Build 0)  -->
<!DOCTYPE svg PUBLIC "-//W3C//DTD SVG 1.1//EN" "http://www.w3.org/Graphics/SVG/1.1/DTD/svg11.dtd">
<svg version="1.1" id="Layer_1" xmlns="http://www.w3.org/2000/svg" xmlns:xlink="http://www.w3.org/1999/xlink" x="0px" y="0px"
	 viewBox="0 0 46 44" enable-background="new 0 0 46 44" xml:space="preserve">
<g>
	<g>
		<path fill="#FFFFFF" d="M0.2,40.7c-0.4,0.8-0.1,1.8,0.7,2.2c0.8,0.4,1.8,0.1,2.2-0.7c0,0,3.1-3,18.5-3c16.7,0,21.3,4.2,21.3,4.2
			c0.3,0.3,0.8,0.5,1.2,0.5c0.4,0,0.8-0.2,1.1-0.5c0.7-0.6,0.7-1.7,0-2.3c-0.3-0.3-1.7-1.6-5.5-2.9c0.3-0.3,0.6-0.8,0.6-1.3v-9
			c0,0,0.7,0,1.5,0c0.8,0,1-0.7,0.3-1.5l-7.9-9.8c-0.7-0.8-1.7-0.8-2.4,0l-0.4,0.4c0.7,0.6,1,1.5,0.7,2.4c-0.3,0.9-1.1,1.5-2.1,1.5
			l-0.2,0l4.8,5.2c0.6,0.7,0.7,1.6,0.4,2.4c-0.4,0.8-1.2,1.3-2,1.3h-5.8v6.1c-0.3,0-0.6,0-1-0.1v-7h6.7c0.5,0,1-0.3,1.2-0.8
			c0.2-0.5,0.1-1-0.2-1.4L28,20.2l2.3,0c0.5,0,1-0.4,1.2-0.9c0.2-0.5,0-1.1-0.5-1.4l-2.7-2h0.3c0,0,0,0,0,0c0.7,0,1.3-0.6,1.3-1.3
			c0-0.3-0.1-0.6-0.3-0.9l-3.2-4.5h0.3c0,0,0,0,0,0c0.7,0,1.3-0.6,1.3-1.3c0-0.3-0.1-0.7-0.4-0.9l-5-6.6c-0.2-0.3-0.6-0.5-1-0.5
			c-0.4,0-0.8,0.2-1,0.5L15.9,7c-0.3,0.4-0.3,0.9-0.1,1.3C16,8.7,16.3,9,16.7,9l-3.4,4.7c-0.2,0.3-0.3,0.7-0.2,1.1
			c0.6,0.1,1.1,0.4,1.6,0.9l0.3,0.4l3.5,4.4l0.6-0.9c0.3-0.4,0.3-0.9,0.1-1.3c-0.2-0.4-0.7-0.7-1.1-0.7h-1l2-2.3
			c0.3-0.4,0.4-0.9,0.2-1.4c-0.2-0.5-0.7-0.7-1.2-0.7h-1.3l3.4-4.7c0.3-0.4,0.3-0.9,0.1-1.3c-0.2-0.4-0.6-0.6-1-0.7l2.2-3.1L24,6.7
			h-0.2c-0.5,0-0.9,0.3-1.1,0.7c-0.2,0.4-0.2,0.9,0.1,1.3l3.3,4.6h-1.7c-0.5,0-1,0.4-1.2,0.9c-0.2,0.5,0,1.1,0.4,1.4l2.8,2.1l-1.4,0
			c-0.5,0-0.9,0.3-1.1,0.8c-0.2,0.5-0.1,1,0.2,1.4l6.2,6.7h-5.1c-0.7,0-1.3,0.6-1.3,1.3V36c-0.6,0-1.3,0-1.9,0v-6.8
			c-0.2,0.1-0.4,0.1-0.6,0.1h-0.2V36c-0.3,0-0.6,0-0.9,0v-8c0,0,0.7,0,1.5,0c0.8,0,1-0.7,0.3-1.5l-7.9-9.8c-0.7-0.8-1.7-0.8-2.4,0
			l-7.7,9.8C3.5,27.3,3.6,28,4.5,28H6v9c0,0.2,0,0.4,0.1,0.5C1.8,38.6,0.5,40.1,0.2,40.7z M13.7,28.1H16v3.4h-2.3V28.1z M13.7,33H16
			v3.1c-0.8,0-1.6,0.1-2.3,0.2V33z M9.9,28.1h2.3v3.4H9.9V28.1z M9.9,33h2.3v3.4H9.9V33z"/>
	</g>
</g>
</svg>
