<?xml version="1.0" encoding="utf-8"?>
<!-- Generator: Adobe Illustrator 18.0.0, SVG Export Plug-In . SVG Version: 6.00 Build 0)  -->
<!DOCTYPE svg PUBLIC "-//W3C//DTD SVG 1.1//EN" "http://www.w3.org/Graphics/SVG/1.1/DTD/svg11.dtd">
<svg version="1.1" id="Layer_1" xmlns="http://www.w3.org/2000/svg" xmlns:xlink="http://www.w3.org/1999/xlink" x="0px" y="0px"
	 viewBox="0 0 31 44" enable-background="new 0 0 31 44" xml:space="preserve">
<g>
	<path fill="#FFFFFF" d="M24.8,12.3c-3.1-5.1-6.6-9.6-8.4-11.8c-0.2-0.3-0.6-0.5-1-0.5c-0.4,0-0.7,0.2-1,0.5
		c-1.8,2.2-5.3,6.7-8.4,11.8C2,18.9,0,24.4,0,28.6C0,37.1,6.9,44,15.4,44s15.4-6.9,15.4-15.4C30.8,24.4,28.8,18.9,24.8,12.3z
		 M17.5,38.3c-0.9,0.2-1.8,0.3-2.8,0.3C9,38.7,4.3,34.3,4.3,29c0-1.3,0.3-2.8,1-4.5c0.1-0.3,0.4-0.4,0.8-0.4
		c0.3,0.1,0.5,0.3,0.5,0.6c0,0.4-0.1,0.7-0.1,1c0,5.8,4.7,10.7,10.9,11.3c0.3,0,0.6,0.3,0.6,0.6C18,38,17.8,38.2,17.5,38.3z"/>
</g>
</svg>
