<?xml version="1.0" encoding="utf-8"?>
<!-- Generator: Adobe Illustrator 18.0.0, SVG Export Plug-In . SVG Version: 6.00 Build 0)  -->
<!DOCTYPE svg PUBLIC "-//W3C//DTD SVG 1.1//EN" "http://www.w3.org/Graphics/SVG/1.1/DTD/svg11.dtd">
<svg version="1.1" id="Layer_1" xmlns="http://www.w3.org/2000/svg" xmlns:xlink="http://www.w3.org/1999/xlink" x="0px" y="0px"
	 viewBox="0 0 57 44" enable-background="new 0 0 57 44" xml:space="preserve">
<g>
	<path fill="#FFFFFF" d="M55.8,34.3H41.6l2.3-4.6c0.1-0.3,0.1-0.6,0-0.9c-0.2-0.3-0.5-0.4-0.8-0.4l-19.6,0.7v-1.9l23.7-1.9
		c0.4,0,0.7-0.3,0.8-0.6c0.1-0.4,0-0.7-0.3-1L23.4,3.4V0.9C23.4,0.4,23,0,22.5,0c-0.5,0-0.9,0.4-0.9,0.9v8.6l-6.8,16.5
		c-0.1,0.3-0.1,0.6,0.1,0.8c0.1,0.2,0.4,0.4,0.7,0.5l6.1,0.9v1l-7,0.2c-0.3,0-0.5,0.1-0.7,0.3c-0.2,0.2-0.2,0.5-0.2,0.8l0.8,3.8H0.9
		c-0.5,0-0.9,0.4-0.9,0.9c0,0.5,0.4,0.9,0.9,0.9h54.9c0.5,0,0.9-0.4,0.9-0.9C56.7,34.7,56.3,34.3,55.8,34.3z M44.7,23.7l-21.3,1.7
		V9.7c0,0,0,0,0,0V5.8L44.7,23.7z"/>
	<path fill="#FFFFFF" d="M38.2,38.2H20.5c-0.5,0-0.9,0.4-0.9,0.9c0,0.5,0.4,0.9,0.9,0.9h17.6c0.5,0,0.9-0.4,0.9-0.9
		C39.1,38.7,38.7,38.2,38.2,38.2z"/>
	<path fill="#FFFFFF" d="M16.6,38.2H8.8c-0.5,0-0.9,0.4-0.9,0.9c0,0.5,0.4,0.9,0.9,0.9h7.8c0.5,0,0.9-0.4,0.9-0.9
		C17.5,38.7,17.1,38.2,16.6,38.2z"/>
	<path fill="#FFFFFF" d="M44.1,38.2h-2c-0.5,0-0.9,0.4-0.9,0.9c0,0.5,0.4,0.9,0.9,0.9h2c0.5,0,0.9-0.4,0.9-0.9
		C45,38.7,44.6,38.2,44.1,38.2z"/>
	<path fill="#FFFFFF" d="M36.2,42.2h-9.8c-0.5,0-0.9,0.4-0.9,0.9s0.4,0.9,0.9,0.9h9.8c0.5,0,0.9-0.4,0.9-0.9S36.7,42.2,36.2,42.2z"
		/>
	<path fill="#FFFFFF" d="M22.5,42.2h-2c-0.5,0-0.9,0.4-0.9,0.9S20,44,20.5,44h2c0.5,0,0.9-0.4,0.9-0.9S23,42.2,22.5,42.2z"/>
</g>
</svg>
