<?xml version="1.0" encoding="utf-8"?>
<!-- Generator: Adobe Illustrator 18.0.0, SVG Export Plug-In . SVG Version: 6.00 Build 0)  -->
<!DOCTYPE svg PUBLIC "-//W3C//DTD SVG 1.1//EN" "http://www.w3.org/Graphics/SVG/1.1/DTD/svg11.dtd">
<svg version="1.1" id="Layer_1" xmlns="http://www.w3.org/2000/svg" xmlns:xlink="http://www.w3.org/1999/xlink" x="0px" y="0px"
	 viewBox="0 0 44 44" enable-background="new 0 0 44 44" xml:space="preserve">
<path fill="#55ACEE" d="M39.3,0H4.7C2.1,0,0,2.1,0,4.7v34.6C0,41.9,2.1,44,4.7,44h34.6c2.6,0,4.7-2.1,4.7-4.7V4.7
	C44,2.1,41.9,0,39.3,0z M31.8,17.5l0,0.6c0,5.9-4.5,12.8-12.8,12.8c-2.5,0-4.9-0.7-6.9-2c0.4,0,0.7,0.1,1.1,0.1c2.1,0,4-0.7,5.6-1.9
	c-2,0-3.6-1.3-4.2-3.1c0.3,0.1,0.6,0.1,0.8,0.1c0.4,0,0.8-0.1,1.2-0.2c-2.1-0.4-3.6-2.2-3.6-4.4v-0.1c0.6,0.3,1.3,0.5,2,0.6
	c-1.2-0.8-2-2.2-2-3.7c0-0.8,0.2-1.6,0.6-2.3c2.2,2.7,5.5,4.5,9.2,4.7c-0.1-0.3-0.1-0.7-0.1-1c0-2.5,2-4.5,4.5-4.5
	c1.3,0,2.5,0.5,3.3,1.4c1-0.2,2-0.6,2.9-1.1c-0.3,1-1,1.9-2,2.5c0.9-0.1,1.8-0.3,2.6-0.7C33.4,16.1,32.7,16.9,31.8,17.5z"/>
</svg>
